<svg width="1078" height="290" viewBox="0 0 1078 290" fill="none" xmlns="http://www.w3.org/2000/svg">
<path d="M80.9961 40C80.9961 17.9086 98.9047 0 120.996 0L974.505 0C993.4 0 1008.72 15.3179 1008.72 34.2135V34.2135C1008.72 43.1209 1008.72 57.0225 1008.72 57.0225C1008.72 57.0225 1008.72 57.0225 1008.72 57.0225V145V250C1008.72 272.091 990.81 290 968.718 290H120.996C98.9047 290 80.9961 272.091 80.9961 250V40Z" fill="white"/>
<rect x="873.422" y="19.9778" width="191.942" height="22.9638" rx="11.4819" fill="white"/>
<rect x="48.6627" y="106.586" width="191.942" height="22.9638" rx="11.4819" fill="white"/>
<rect x="23.3808" y="154.022" width="191.218" height="22.5556" rx="11.2778" fill="white"/>
<rect x="861.732" y="66.3779" width="172.012" height="24.4889" rx="12.2444" fill="white"/>
<rect x="916.843" y="239.089" width="161.157" height="30.9333" rx="15.4667" fill="white"/>
<rect x="969.449" y="42.749" width="68.4716" height="24.8406" rx="12.4203" fill="#85B6C6"/>
<rect x="10.8561" y="24.4891" width="106.046" height="24.4889" rx="12.2444" fill="#85B6C6"/>
<rect x="65.9666" y="6.10352e-05" width="157.044" height="24.276" rx="12.138" fill="white"/>
<rect x="65.9666" y="48.748" width="157.044" height="24.276" rx="12.138" fill="white"/>
<rect x="10.8561" y="129.533" width="132.767" height="24.4889" rx="12.2444" fill="#85B6C6"/>
<rect x="965.273" y="216.056" width="55.1113" height="23.1076" rx="11.5538" fill="#85B6C6"/>
<rect y="73.0895" width="92.6863" height="33.5976" rx="15" fill="#85B6C6"/>
<path d="M987.819 113.083C987.819 100.401 998.1 90.1196 1010.78 90.1196V90.1196C1023.46 90.1196 1033.74 100.401 1033.74 113.083V204.647C1033.74 217.329 1023.46 227.61 1010.78 227.61V227.61C998.1 227.61 987.819 217.329 987.819 204.647V113.083Z" fill="#85B6C6"/>
</svg>
