<svg width="320" height="404" viewBox="0 0 320 404" fill="none" xmlns="http://www.w3.org/2000/svg">
<path d="M24.0434 40C24.0434 17.9086 41.952 0 64.0434 0L259.434 0C281.525 0 299.434 17.9104 299.434 40.0017C299.434 42.6716 299.434 45.2523 299.434 47.6587C299.434 60.0666 299.434 79.4311 299.434 79.4311C299.434 79.4311 299.434 79.4311 299.434 79.4311V201.982V363.964C299.434 386.055 281.525 403.964 259.434 403.964H64.0434C41.952 403.964 24.0434 386.055 24.0434 363.964V40Z" fill="white"/>
<rect x="259.272" y="27.8286" width="56.9774" height="31.9881" rx="15.994" fill="white"/>
<rect x="14.4453" y="148.472" width="56.9774" height="31.9881" rx="15.994" fill="white"/>
<rect x="6.94049" y="214.55" width="56.7622" height="31.4194" rx="15.7097" fill="white"/>
<rect x="255.802" y="92.463" width="51.0612" height="34.1125" rx="17.0563" fill="white"/>
<rect x="259.2" y="330" width="60.8" height="45" rx="22.5" fill="white"/>
<rect x="259.2" y="60" width="48.8" height="34" rx="17" fill="#85B6C6"/>
<rect x="3.20001" y="34" width="47.2" height="34" rx="17" fill="#85B6C6"/>
<rect x="7.20001" width="59.2" height="34" rx="17" fill="white"/>
<rect x="7.20001" y="68" width="59.2" height="34" rx="17" fill="white"/>
<rect x="3.20001" y="180" width="47.2" height="35" rx="17.5" fill="#85B6C6"/>
<rect x="272" y="301" width="31.2" height="32" rx="15.6" fill="#85B6C6"/>
<rect y="102" width="42.4" height="47" rx="15" fill="#85B6C6"/>
<path d="M293.23 132.351C293.23 128.587 296.282 125.535 300.047 125.535V125.535C303.811 125.535 306.863 128.587 306.863 132.351V310.239C306.863 314.004 303.811 317.055 300.047 317.055V317.055C296.282 317.055 293.23 314.004 293.23 310.239V132.351Z" fill="#85B6C6"/>
</svg>
