<svg width="519" height="524" viewBox="0 0 519 524" fill="none" xmlns="http://www.w3.org/2000/svg">
<path d="M38.9954 40C38.9954 17.9086 56.904 0 78.9954 0L445.645 0C467.736 0 485.645 17.9085 485.645 39.9999C485.645 47.5873 485.645 55.211 485.645 61.8202C485.645 77.9151 485.645 103.034 485.645 103.034C485.645 103.034 485.645 103.034 485.645 103.034V262V484C485.645 506.091 467.736 524 445.645 524H78.9954C56.904 524 38.9954 506.091 38.9954 484V40Z" fill="white"/>
<rect x="420.507" y="36.0978" width="92.4102" height="41.4932" rx="20.7466" fill="white"/>
<rect x="23.4285" y="192.589" width="92.4102" height="41.4932" rx="20.7466" fill="white"/>
<rect x="11.2567" y="278.302" width="92.0612" height="40.7556" rx="20.3778" fill="white"/>
<rect x="414.878" y="119.938" width="82.8149" height="44.2489" rx="22.1244" fill="white"/>
<rect x="441.411" y="432.009" width="77.5887" height="55.8933" rx="27.9467" fill="white"/>
<rect x="466.738" y="77.2432" width="32.9655" height="44.8845" rx="16.4827" fill="#85B6C6"/>
<rect x="5.22668" y="44.2493" width="51.0558" height="44.2489" rx="22.1244" fill="#85B6C6"/>
<rect x="23" width="84" height="44.1029" rx="22.0515" fill="white"/>
<rect x="11" y="88.2058" width="96" height="44.1029" rx="22.0515" fill="white"/>
<rect x="5" y="233.486" width="88" height="45.4001" rx="22.7" fill="#85B6C6"/>
<rect x="431" y="390" width="82" height="42" rx="21" fill="#85B6C6"/>
<rect y="132.309" width="83" height="60.9658" rx="15" fill="#85B6C6"/>
<path d="M475.583 173.892C475.583 167.786 480.532 162.837 486.638 162.837V162.837C492.744 162.837 497.694 167.786 497.694 173.892V400.211C497.694 406.317 492.744 411.267 486.638 411.267V411.267C480.532 411.267 475.583 406.317 475.583 400.211V173.892Z" fill="#85B6C6"/>
</svg>
