<svg width="656" height="300" viewBox="0 0 656 300" fill="none" xmlns="http://www.w3.org/2000/svg">
<path d="M49.2889 40C49.2889 17.9086 67.1976 0 89.2889 0L578.446 0C597.994 0 613.84 15.8461 613.84 35.3933V35.3933C613.84 44.6079 613.84 58.9888 613.84 58.9888C613.84 58.9888 613.84 58.9888 613.84 58.9888V150V260C613.84 282.091 595.931 300 573.84 300H89.289C67.1976 300 49.2889 282.091 49.2889 260V40Z" fill="white"/>
<rect x="531.507" y="20.6667" width="116.804" height="23.7557" rx="11.8778" fill="white"/>
<rect x="29.6129" y="110.261" width="116.804" height="23.7557" rx="11.8778" fill="white"/>
<rect x="14.228" y="159.333" width="116.363" height="23.3333" rx="11.6667" fill="white"/>
<rect x="524.394" y="68.6668" width="104.675" height="25.3333" rx="12.6667" fill="white"/>
<rect x="557.93" y="247.333" width="98.0698" height="32" rx="16" fill="white"/>
<rect x="589.943" y="44.2231" width="41.6674" height="25.6972" rx="12.8486" fill="#85B6C6"/>
<rect x="6.60638" y="25.3335" width="64.5329" height="25.3333" rx="12.6667" fill="#85B6C6"/>
<rect x="40.1429" y="6.10352e-05" width="95.5666" height="25.1131" rx="12.5566" fill="white"/>
<rect x="40.1429" y="50.4289" width="95.5666" height="25.1131" rx="12.5566" fill="white"/>
<rect x="6.60632" y="134" width="80.7932" height="25.3333" rx="12.6667" fill="#85B6C6"/>
<rect x="587.402" y="223.506" width="33.5371" height="23.9044" rx="11.9522" fill="#85B6C6"/>
<rect y="75.6098" width="56.4028" height="34.7561" rx="15" fill="#85B6C6"/>
<path d="M601.122 107.201C601.122 99.4835 607.378 93.2272 615.095 93.2272V93.2272C622.813 93.2272 629.069 99.4835 629.069 107.201V221.484C629.069 229.202 622.813 235.458 615.095 235.458V235.458C607.378 235.458 601.122 229.202 601.122 221.484V107.201Z" fill="#85B6C6"/>
</svg>
