<svg width="867" height="290" viewBox="0 0 867 290" fill="none" xmlns="http://www.w3.org/2000/svg">
<path d="M65.081 40C65.081 17.9086 82.9896 0 105.081 0L776.299 0C795.195 0 810.513 15.3179 810.513 34.2135V34.2135C810.513 43.1209 810.513 57.0225 810.513 57.0225C810.513 57.0225 810.513 57.0225 810.513 57.0225V145V250C810.513 272.091 792.604 290 770.513 290H105.081C82.9896 290 65.081 272.091 65.081 250V40Z" fill="white"/>
<rect x="701.801" y="19.9778" width="154.227" height="22.9638" rx="11.4819" fill="white"/>
<rect x="39.1008" y="106.586" width="154.227" height="22.9638" rx="11.4819" fill="white"/>
<rect x="18.7866" y="154.022" width="153.645" height="22.5556" rx="11.2778" fill="white"/>
<rect x="692.408" y="66.3779" width="138.213" height="24.4889" rx="12.2444" fill="white"/>
<rect x="736.69" y="239.089" width="129.491" height="30.9333" rx="15.4667" fill="white"/>
<rect x="778.959" y="42.749" width="55.0175" height="24.8406" rx="12.4203" fill="#85B6C6"/>
<rect x="8.72302" y="24.4891" width="85.2091" height="24.4889" rx="12.2444" fill="#85B6C6"/>
<rect x="53.0046" y="6.10352e-05" width="126.186" height="24.276" rx="12.138" fill="white"/>
<rect x="53.0046" y="48.748" width="126.186" height="24.276" rx="12.138" fill="white"/>
<rect x="8.72296" y="129.533" width="106.679" height="24.4889" rx="12.2444" fill="#85B6C6"/>
<rect x="775.604" y="216.056" width="44.2824" height="23.1076" rx="11.5538" fill="#85B6C6"/>
<rect y="73.0895" width="74.4741" height="33.5976" rx="15" fill="#85B6C6"/>
<path d="M793.72 108.571C793.72 98.3804 801.981 90.1196 812.171 90.1196V90.1196C822.361 90.1196 830.622 98.3804 830.622 108.571V209.159C830.622 219.349 822.361 227.61 812.171 227.61V227.61C801.981 227.61 793.72 219.349 793.72 209.159V108.571Z" fill="#85B6C6"/>
</svg>
