<svg width="249" height="89" viewBox="0 0 249 89" fill="none" xmlns="http://www.w3.org/2000/svg">
<g clip-path="url(#clip0)">
<path d="M49.3685 20.4304V14.834H53.4767V25.2068L49.3685 20.4304Z" fill="url(#paint0_linear)"/>
<path d="M49.8559 20.8182V15.9297H52.9197V25.2068L49.8559 20.8182Z" fill="#CFD496"/>
<path d="M56.819 9.27124C58.9341 9.27124 60.6487 7.19581 60.6487 4.63562C60.6487 2.07544 58.9341 0 56.819 0C54.7039 0 52.9893 2.07544 52.9893 4.63562C52.9893 7.19581 54.7039 9.27124 56.819 9.27124Z" fill="url(#paint1_linear)"/>
<path d="M56.819 8.344C58.5111 8.344 59.8828 6.68364 59.8828 4.6355C59.8828 2.58735 58.5111 0.927002 56.819 0.927002C55.1269 0.927002 53.7552 2.58735 53.7552 4.6355C53.7552 6.68364 55.1269 8.344 56.819 8.344Z" fill="#FF9800"/>
<path d="M24.0557 25.7463C24.6211 24.9635 25.041 24.043 25.2872 23.0469C25.5333 22.0508 25.5999 21.0023 25.4825 19.9724C25.3651 18.9424 25.0663 17.955 24.6065 17.0768C24.1466 16.1986 23.5364 15.4502 22.817 14.8821C23.1889 14.1852 23.3862 13.3729 23.3852 12.5432C23.3852 10.1967 21.8484 8.29443 19.9531 8.29443C18.3919 8.29443 17.0759 9.58651 16.6602 11.3531C15.764 9.51992 14.1382 8.29443 12.2811 8.29443C9.45617 8.29443 7.16669 11.1289 7.16669 14.6258C7.16604 15.3708 7.27206 16.1102 7.48003 16.8113C7.37628 16.8012 7.27114 16.7919 7.16669 16.7919C4.8995 16.7919 3.05846 19.0676 3.05846 21.8743C3.05846 22.0471 3.06542 22.2182 3.07935 22.3876C2.15705 22.8889 1.37493 23.7037 0.828053 24.733C0.281181 25.7623 -0.00688818 26.9617 -0.00113622 28.1855C-0.00113622 31.6706 2.28137 34.4966 5.09656 34.4966C5.3924 34.4962 5.68763 34.464 5.97879 34.4006C5.96347 34.6104 5.95441 34.822 5.95441 35.0386C5.95441 38.9494 8.51545 42.1184 11.6746 42.1184C12.8427 42.1181 13.9815 41.6761 14.932 40.8542C15.6967 41.6676 16.6796 42.1169 17.6977 42.1184C20.0575 42.1184 21.971 39.7501 21.971 36.8279C21.971 36.7015 21.9626 36.5751 21.9556 36.4529H21.971C24.4986 36.4529 26.5471 33.9168 26.5471 30.7881C26.5511 29.7527 26.321 28.7356 25.8819 27.847C25.4428 26.9583 24.8113 26.2319 24.0557 25.7463V25.7463Z" fill="url(#paint2_linear)"/>
<path d="M23.3961 25.7125C23.9269 24.9778 24.3211 24.1137 24.5523 23.1786C24.7834 22.2435 24.8459 21.2593 24.7357 20.2924C24.6254 19.3256 24.345 18.3986 23.9132 17.5743C23.4815 16.7499 22.9086 16.0474 22.2332 15.5142C22.5818 14.8612 22.767 14.1002 22.7666 13.3228C22.7666 11.1205 21.3245 9.33447 19.5448 9.33447C18.0825 9.33447 16.8445 10.5473 16.4538 12.2052C16.0349 11.3351 15.4354 10.6125 14.7149 10.109C13.9943 9.60552 13.1776 9.33853 12.3456 9.33447C9.69404 9.33447 7.54453 11.9953 7.54453 15.2773C7.54383 15.9766 7.64325 16.6707 7.83837 17.3288C7.74089 17.3195 7.64341 17.3103 7.54453 17.3103C5.41382 17.3094 3.69045 19.4443 3.69045 22.0824C3.69045 22.2451 3.69741 22.4052 3.70994 22.5637C2.84377 23.0338 2.10912 23.7985 1.59536 24.7646C1.08159 25.7308 0.810853 26.8569 0.816072 28.0059C0.816072 31.2778 2.95862 33.9294 5.60112 33.9294C5.87875 33.929 6.15581 33.8988 6.42904 33.8392C6.41511 34.0364 6.40606 34.2362 6.40606 34.4376C6.40606 38.1082 8.80973 41.0843 11.7753 41.0843C12.8711 41.0859 13.94 40.6734 14.8328 39.9043C15.5514 40.6653 16.4739 41.0846 17.4287 41.0843C19.6436 41.0843 21.4401 38.8608 21.4401 36.1182C21.4401 35.9994 21.4325 35.8831 21.4255 35.7659H21.4401C23.8125 35.7659 25.7357 33.3849 25.7357 30.4485C25.7398 29.4758 25.524 28.5203 25.1116 27.6855C24.6992 26.8507 24.1059 26.1684 23.3961 25.7125Z" fill="#00897B"/>
<path d="M14.9254 18.127H13.6783V55.6763H14.9254V18.127Z" fill="url(#paint3_linear)"/>
<path d="M14.6601 18.6545H14.0328V55.6763H14.6601V18.6545Z" fill="#795548"/>
<path d="M19.1236 22.8352L13.9758 29.5642L14.4361 30.0802L19.5839 23.3512L19.1236 22.8352Z" fill="#795548"/>
<path d="M9.05536 30.5048L8.6813 31.1145L14.0187 35.9126L14.3928 35.3029L9.05536 30.5048Z" fill="#795548"/>
<path d="M16.224 29.9208C15.3819 28.8361 14.9124 27.4041 14.9108 25.9156C14.9108 23.7714 15.8738 21.8919 17.3207 20.8324C16.9952 20.2574 16.8209 19.5767 16.8208 18.8796C16.8208 16.9166 18.1814 15.3253 19.8602 15.3253C21.2431 15.3253 22.408 16.4058 22.7763 17.8842C23.1908 17.095 23.764 16.4463 24.4423 15.9987C25.1205 15.5511 25.8816 15.3194 26.6541 15.3253C29.1559 15.3253 31.1801 17.6971 31.1801 20.6226C31.1801 21.2474 31.0857 21.8669 30.9016 22.4507C30.9935 22.4422 31.0854 22.4347 31.1801 22.4347C33.1883 22.4347 34.8156 24.3378 34.8156 26.6859C34.8154 26.8292 34.8091 26.9724 34.7968 27.115C36.4024 27.9241 37.527 29.791 37.527 31.9655C37.527 34.8817 35.5077 37.245 33.0121 37.245C32.7502 37.2434 32.4889 37.2152 32.2308 37.1608C32.2441 37.3369 32.2524 37.5139 32.2524 37.6943C32.2524 40.9662 29.9845 43.6186 27.1868 43.6186C26.1613 43.6209 25.1585 43.2535 24.3061 42.5634C23.6156 43.2487 22.7495 43.6218 21.8565 43.6186C19.7676 43.6186 18.0721 41.6371 18.0721 39.1929C18.0721 39.0867 18.079 38.983 18.0853 38.8785H18.0721C15.8341 38.8785 14.0195 36.7562 14.0195 34.1392C14.0195 32.3001 14.9171 30.7063 16.224 29.9208Z" fill="url(#paint4_linear)"/>
<path d="M16.6356 29.9013C15.8307 28.8623 15.3826 27.4915 15.3822 26.0672C15.3822 24.0149 16.3041 22.2163 17.6891 21.2023C17.3758 20.6514 17.208 19.9984 17.2079 19.3295C17.2079 17.4509 18.5107 15.927 20.1171 15.927C21.4401 15.927 22.5542 16.9612 22.9086 18.3763C23.3052 17.6221 23.8534 17.0021 24.5019 16.5742C25.1504 16.1462 25.8779 15.9244 26.6165 15.9295C29.0111 15.9295 30.9517 18.1993 30.9517 20.9992C30.9522 21.5974 30.8623 22.1907 30.6864 22.7498C30.7742 22.7422 30.8619 22.7338 30.9517 22.7338C32.8736 22.7338 34.4333 24.556 34.4333 26.803C34.4333 26.9401 34.4275 27.0771 34.4159 27.2135C35.9526 27.988 37.0291 29.7749 37.0291 31.8558C37.0291 34.6465 35.0948 36.9129 32.7078 36.9129C32.4574 36.9112 32.2074 36.8841 31.9607 36.832C31.9732 37.0005 31.9809 37.1691 31.9809 37.3427C31.9809 40.4747 29.8098 43.0134 27.1325 43.0134C26.1496 43.0159 25.1884 42.6638 24.3716 42.0019C23.7108 42.6584 22.8819 43.016 22.0271 43.0134C20.0266 43.0134 18.4063 41.117 18.4063 38.7772C18.4063 38.6761 18.4133 38.5766 18.4195 38.4763H18.4063C16.2637 38.4763 14.5271 36.4451 14.5271 33.9402C14.5237 32.1786 15.3822 30.6531 16.6356 29.9013Z" fill="#009688"/>
<path d="M25.5407 23.9705H24.1223V55.4859H25.5407V23.9705Z" fill="url(#paint5_linear)"/>
<path d="M25.2469 23.9705H24.4628V55.4859H25.2469V23.9705Z" fill="#795548"/>
<path d="M20.5645 27.3369L20.0046 28.0012L24.6538 33.7419L25.2137 33.0776L20.5645 27.3369Z" fill="#795548"/>
<path d="M29.5286 33.8596L24.709 37.9536L25.1594 38.7304L29.979 34.6364L29.5286 33.8596Z" fill="#795548"/>
<path d="M56.6247 29.4995H21.6553C20.8566 29.4995 20.2097 29.9344 20.2097 30.4721V61.546H58.0723V30.4721C58.0723 29.9344 57.4234 29.4995 56.6247 29.4995Z" fill="url(#paint6_linear)"/>
<path d="M39.0296 11.7188L20.787 28.1204V60.3608H57.3816V29.2903L39.0296 11.7188Z" fill="white"/>
<path d="M39.0658 31.4304C41.3094 31.4304 43.1281 29.229 43.1281 26.5133C43.1281 23.7977 41.3094 21.5962 39.0658 21.5962C36.8223 21.5962 35.0036 23.7977 35.0036 26.5133C35.0036 29.229 36.8223 31.4304 39.0658 31.4304Z" fill="url(#paint7_linear)"/>
<path d="M31.4496 35.9961H24.2685V44.6883H31.4496V35.9961Z" fill="url(#paint8_linear)"/>
<path d="M53.7183 35.9961H46.5373V44.6883H53.7183V35.9961Z" fill="url(#paint9_linear)"/>
<path d="M17.2685 36.3012L16.2958 29.7153L39.1097 8.4917L61.6932 30.1392L61.0665 36.0484L39.1062 15.9904L17.2685 36.3012Z" fill="url(#paint10_linear)"/>
<path d="M17.3131 34.9787L16.6439 30.4282L39.1041 9.21387L61.345 30.4298L60.6717 34.9761L39.1007 14.399L17.3131 34.9787Z" fill="#CFD496"/>
<path d="M43.4185 45.8293H34.6415V60.3607H43.4185V45.8293Z" fill="url(#paint11_linear)"/>
<path d="M43.1643 46.1372H34.8949V60.361H43.1643V46.1372Z" fill="#CFD496"/>
<path d="M31.2686 36.3027H24.5951V39.1566H31.2686V36.3027Z" fill="#CFD496"/>
<path opacity="0.2" d="M31.2686 39.1567H24.5951V44.3807H31.2686V39.1567Z" fill="#CFD496"/>
<path d="M53.4649 36.3027H46.7914V39.1566H53.4649V36.3027Z" fill="#CFD496"/>
<path opacity="0.2" d="M53.4649 39.1567H46.7914V44.3807H53.4649V39.1567Z" fill="#CFD496"/>
<path d="M39.0296 30.9476C39.5158 30.9476 39.9971 30.8316 40.4462 30.6063C40.8953 30.381 41.3032 30.0508 41.6468 29.6345C41.9904 29.2182 42.2628 28.7241 42.4485 28.1803C42.6342 27.6365 42.7296 27.0537 42.7291 26.4653H35.3301C35.3297 27.0537 35.425 27.6365 35.6108 28.1803C35.7965 28.7241 36.0689 29.2182 36.4125 29.6345C36.756 30.0508 37.164 30.381 37.6131 30.6063C38.0622 30.8316 38.5435 30.9476 39.0296 30.9476V30.9476Z" fill="#CFD496"/>
<path opacity="0.2" d="M39.0296 30.9035C40.0108 30.9035 40.9518 30.4318 41.6456 29.592C42.3394 28.7522 42.7291 27.6132 42.7291 26.4255H35.3301C35.3301 27.6132 35.7199 28.7522 36.4137 29.592C37.1075 30.4318 38.0485 30.9035 39.0296 30.9035V30.9035Z" fill="black"/>
<path opacity="0.2" d="M39.0296 21.9915C38.0491 21.9915 37.1086 22.4627 36.4149 23.3015C35.7212 24.1404 35.3311 25.2783 35.3301 26.4652H42.7291C42.7282 25.2783 42.338 24.1404 41.6444 23.3015C40.9507 22.4627 40.0102 21.9915 39.0296 21.9915V21.9915Z" fill="#CFD496"/>
<path opacity="0.2" d="M39.0296 21.9915C38.0491 21.9915 37.1086 22.4627 36.4149 23.3015C35.7212 24.1404 35.3311 25.2783 35.3301 26.4652H42.7291C42.7282 25.2783 42.338 24.1404 41.6444 23.3015C40.9507 22.4627 40.0102 21.9915 39.0296 21.9915V21.9915Z" fill="#CFD496"/>
<path d="M41.2418 54.2587C41.7225 54.2587 42.1122 53.787 42.1122 53.2052C42.1122 52.6233 41.7225 52.1516 41.2418 52.1516C40.7611 52.1516 40.3714 52.6233 40.3714 53.2052C40.3714 53.787 40.7611 54.2587 41.2418 54.2587Z" fill="url(#paint12_linear)"/>
<path d="M41.2418 53.9957C41.6026 53.9957 41.895 53.6418 41.895 53.2051C41.895 52.7685 41.6026 52.4146 41.2418 52.4146C40.8811 52.4146 40.5887 52.7685 40.5887 53.2051C40.5887 53.6418 40.8811 53.9957 41.2418 53.9957Z" fill="#263238"/>
<path d="M44.2158 58.2976H33.5532V62.5118H44.2158V58.2976Z" fill="url(#paint13_linear)"/>
<path d="M43.9978 58.6482H33.7704V62.248H43.9978V58.6482Z" fill="white"/>
<path d="M23.5722 48.5787C23.8327 48.2179 24.0261 47.7936 24.1395 47.3345C24.2529 46.8754 24.2836 46.3922 24.2294 45.9176C24.1753 45.4429 24.0377 44.9878 23.8258 44.5831C23.6139 44.1783 23.3327 43.8334 23.0012 43.5714C23.1727 43.2502 23.2636 42.8758 23.2631 42.4934C23.2727 42.0267 23.1408 41.5718 22.8922 41.2148C22.6437 40.8578 22.2957 40.6233 21.914 40.5558C21.5323 40.4882 21.1434 40.5922 20.8208 40.8481C20.4982 41.1041 20.2642 41.4942 20.1631 41.9447C19.9572 41.5171 19.6626 41.1619 19.3084 40.9146C18.9542 40.6673 18.5527 40.5363 18.1438 40.5347C16.8417 40.5347 15.7861 41.8411 15.7861 43.4534C15.7853 43.7981 15.8341 44.1404 15.9302 44.4648C15.8822 44.4606 15.8348 44.4556 15.7861 44.4556C14.7416 44.4556 13.8935 45.5041 13.8935 46.7978C13.8935 46.8779 13.8935 46.9563 13.9032 47.0346C13.4779 47.2656 13.1172 47.6411 12.8649 48.1156C12.6125 48.5901 12.4796 49.143 12.4821 49.7073C12.4821 51.3137 13.5342 52.6159 14.8321 52.6159C14.9685 52.6156 15.1046 52.6007 15.2388 52.5713C15.2318 52.6682 15.2276 52.766 15.2276 52.8654C15.2276 54.6682 16.4114 56.1297 17.8646 56.1297C18.4028 56.1299 18.9276 55.9266 19.3658 55.5482C19.7185 55.9227 20.1716 56.1294 20.6407 56.1297C21.7284 56.1297 22.6106 55.034 22.6106 53.6914C22.6106 53.6332 22.6071 53.5759 22.6037 53.5186H22.6106C23.7755 53.5186 24.7197 52.3496 24.7197 50.9058C24.7221 50.4281 24.6164 49.9587 24.4141 49.5485C24.2118 49.1383 23.9207 48.803 23.5722 48.5787V48.5787Z" fill="url(#paint14_linear)"/>
<path d="M23.2672 48.5636C23.5118 48.2249 23.6935 47.8266 23.7999 47.3956C23.9064 46.9646 23.9352 46.511 23.8843 46.0654C23.8335 45.6198 23.7042 45.1926 23.5053 44.8126C23.3063 44.4327 23.0423 44.1089 22.7311 43.8631C22.892 43.5617 22.9773 43.2105 22.9769 42.8517C22.986 42.4135 22.8622 41.9865 22.6289 41.6513C22.3956 41.3161 22.0689 41.096 21.7106 41.0326C21.3523 40.9692 20.9872 41.0669 20.6843 41.3071C20.3815 41.5474 20.1619 41.9137 20.067 42.3367C19.8739 41.9357 19.5976 41.6027 19.2656 41.3706C18.9335 41.1386 18.5572 41.0154 18.1737 41.0134C16.9517 41.0134 15.9608 42.2398 15.9608 43.7527C15.9606 44.075 16.0066 44.395 16.0966 44.6983C16.0521 44.6983 16.0068 44.6899 15.9608 44.6899C14.9797 44.6899 14.1846 45.6743 14.1846 46.8889C14.1846 46.9639 14.1846 47.0381 14.1936 47.1105C13.7944 47.3272 13.4558 47.6797 13.2189 48.125C12.9821 48.5702 12.8572 49.0892 12.8595 49.6188C12.8595 51.1267 13.8468 52.3496 15.0654 52.3496C15.1933 52.3495 15.321 52.3357 15.447 52.3083C15.4407 52.3994 15.4365 52.4912 15.4365 52.584C15.4365 54.2764 16.5444 55.6477 17.9112 55.6477C18.4165 55.6478 18.9092 55.4568 19.3205 55.1015C19.6516 55.4532 20.077 55.6473 20.5175 55.6477C21.539 55.6477 22.3662 54.6228 22.3662 53.3585C22.3662 53.3037 22.3627 53.2498 22.3593 53.1959H22.3662C23.4594 53.1959 24.3465 52.1002 24.3465 50.7449C24.3481 50.2967 24.2484 49.8566 24.0581 49.4721C23.8679 49.0876 23.5944 48.7735 23.2672 48.5636V48.5636Z" fill="#00897B"/>
<path d="M19.363 45.0674H18.7879V62.3759H19.363V45.0674Z" fill="url(#paint15_linear)"/>
<path d="M19.2405 45.3103H18.9515V62.3761H19.2405V45.3103Z" fill="#795548"/>
<path d="M21.2989 47.2342L18.9258 50.3362L19.1378 50.5738L21.5109 47.4718L21.2989 47.2342Z" fill="#795548"/>
<path d="M16.6569 50.7744L16.4846 51.0552L18.9448 53.2668L19.1171 52.986L16.6569 50.7744Z" fill="#795548"/>
<path d="M19.9626 50.5039C19.5741 50.0039 19.3577 49.3435 19.3575 48.6572C19.36 48.1834 19.464 47.7185 19.6592 47.3078C19.8545 46.8972 20.1344 46.5548 20.4716 46.3141C20.3206 46.0488 20.2398 45.7344 20.2397 45.4123C20.2397 44.5071 20.8664 43.7738 21.6407 43.7738C21.9398 43.7696 22.232 43.8821 22.4742 44.0946C22.7163 44.3071 22.8955 44.6084 22.9852 44.9538C23.1762 44.5899 23.4404 44.2908 23.7531 44.0844C24.0657 43.878 24.4166 43.7711 24.7727 43.7738C25.9258 43.7738 26.8616 44.8695 26.8616 46.218C26.8618 46.5061 26.8183 46.7917 26.7335 47.0609C26.776 47.0609 26.8184 47.0533 26.8616 47.0533C27.787 47.0533 28.5376 47.9307 28.5376 49.0129C28.5377 49.079 28.5349 49.1452 28.5293 49.211C28.8982 49.3912 29.2147 49.6999 29.4387 50.0979C29.6627 50.4959 29.784 50.9654 29.7875 51.447C29.7875 52.7913 28.8558 53.8811 27.7062 53.8811C27.5856 53.8809 27.4652 53.8685 27.3462 53.8441C27.3525 53.9283 27.356 54.0067 27.356 54.0902C27.356 55.598 26.3115 56.821 25.0206 56.821C24.5472 56.8225 24.0841 56.6532 23.6906 56.3346C23.3716 56.6495 22.9721 56.8203 22.5605 56.8176C21.5968 56.8176 20.8162 55.9039 20.8162 54.7771C20.8162 54.7282 20.8162 54.6801 20.8225 54.6321H20.8162C19.7843 54.6321 18.948 53.6536 18.948 52.4475C18.9505 52.0412 19.0468 51.6438 19.2261 51.3003C19.4053 50.9569 19.6605 50.681 19.9626 50.5039Z" fill="url(#paint16_linear)"/>
<path d="M20.1513 50.4945C19.7792 50.0152 19.572 49.3822 19.5719 48.7245C19.5741 48.2714 19.6731 47.8266 19.8594 47.4336C20.0458 47.0405 20.313 46.7126 20.6352 46.4817C20.4907 46.2279 20.4132 45.9269 20.4131 45.6187C20.4131 44.7522 21.0133 44.0501 21.7542 44.0501C22.0402 44.0466 22.3197 44.1544 22.5513 44.3576C22.783 44.5607 22.9546 44.8486 23.0409 45.1787C23.2238 44.8306 23.4768 44.5445 23.776 44.3471C24.0752 44.1497 24.411 44.0475 24.7518 44.0501C25.8554 44.0501 26.7502 45.0961 26.7502 46.3873C26.7503 46.663 26.7088 46.9363 26.6276 47.1939C26.668 47.1939 26.7084 47.1863 26.7502 47.1863C27.6359 47.1863 28.3517 48.0292 28.3517 49.0625C28.3516 49.1258 28.3489 49.1891 28.3434 49.2521C28.6965 49.4246 28.9995 49.7199 29.2139 50.1009C29.4284 50.4818 29.5446 50.9312 29.548 51.3921C29.548 52.6783 28.656 53.7217 27.5558 53.7217C27.4392 53.7218 27.3227 53.71 27.2077 53.6863C27.2139 53.7639 27.2174 53.8422 27.2174 53.9215C27.2174 55.3653 26.2168 56.5343 24.9823 56.5343C24.5292 56.5358 24.086 56.3739 23.7094 56.069C23.4047 56.3712 23.0227 56.5357 22.6287 56.5343C21.7068 56.5343 20.9576 55.6603 20.9576 54.5814C20.9576 54.5351 20.9576 54.4887 20.9639 54.4432H20.9576C19.9702 54.4432 19.1695 53.5068 19.1695 52.3521C19.1731 51.9623 19.2671 51.5816 19.4407 51.2532C19.6142 50.9248 19.8604 50.6619 20.1513 50.4945V50.4945Z" fill="#009688"/>
<path d="M24.256 47.7605H23.6022V62.2877H24.256V47.7605Z" fill="url(#paint17_linear)"/>
<path d="M24.1209 47.7605H23.7595V62.2877H24.1209V47.7605Z" fill="#795548"/>
<path d="M21.9624 49.3127L21.7043 49.6189L23.8476 52.2654L24.1057 51.9591L21.9624 49.3127Z" fill="#795548"/>
<path d="M26.0951 52.3181L23.8733 54.2053L24.0809 54.5634L26.3026 52.6761L26.0951 52.3181Z" fill="#795548"/>
<path d="M6.21249 42.459L10.9168 48.3774L16.2394 42.459" stroke="#37474F" stroke-miterlimit="10"/>
<path d="M4.72726 39.4617H1.57088V63.0612H4.72726V39.4617Z" fill="url(#paint18_linear)"/>
<path d="M4.47937 39.9111H1.81807V62.2371H4.47937V39.9111Z" fill="#F5F5F5"/>
<path d="M19.7056 40.436H0.765945V44.5567H19.7056V40.436Z" fill="url(#paint19_linear)"/>
<path d="M1.01383 40.8854L1.01383 44.1067H19.4584V40.8854H1.01383Z" fill="#F5F5F5"/>
<path d="M3.18005 43.1332C3.4877 43.1332 3.7371 42.8313 3.7371 42.4589C3.7371 42.0865 3.4877 41.7847 3.18005 41.7847C2.8724 41.7847 2.623 42.0865 2.623 42.4589C2.623 42.8313 2.8724 43.1332 3.18005 43.1332Z" fill="url(#paint20_linear)"/>
<path d="M18.0964 43.1332C18.4041 43.1332 18.6535 42.8313 18.6535 42.4589C18.6535 42.0865 18.4041 41.7847 18.0964 41.7847C17.7888 41.7847 17.5394 42.0865 17.5394 42.4589C17.5394 42.8313 17.7888 43.1332 18.0964 43.1332Z" fill="url(#paint21_linear)"/>
<path d="M3.18005 42.9831C3.41924 42.9831 3.61315 42.7484 3.61315 42.4588C3.61315 42.1693 3.41924 41.9346 3.18005 41.9346C2.94085 41.9346 2.74694 42.1693 2.74694 42.4588C2.74694 42.7484 2.94085 42.9831 3.18005 42.9831Z" fill="#E6E6E6"/>
<path d="M18.0964 42.9831C18.3356 42.9831 18.5295 42.7484 18.5295 42.4588C18.5295 42.1693 18.3356 41.9346 18.0964 41.9346C17.8572 41.9346 17.6633 42.1693 17.6633 42.4588C17.6633 42.7484 17.8572 42.9831 18.0964 42.9831Z" fill="#E6E6E6"/>
<path d="M17.2302 48.0022H5.2843V57.8162H17.2302V48.0022Z" fill="url(#paint22_linear)"/>
<path d="M17.1369 48.1152H5.37691V57.555H17.1369V48.1152Z" fill="#CFD496"/>
<path d="M15.0327 49.613H6.7389V50.5123H15.0327V49.613Z" fill="white"/>
<path d="M14.1351 51.3735H8.25547V52.2729H14.1351V51.3735Z" fill="white"/>
<path d="M14.6302 53.1343H7.5125V54.0336H14.6302V53.1343Z" fill="white"/>
<path d="M15.1253 54.895H6.8315V55.7943H15.1253V54.895Z" fill="white"/>
<path d="M51.2304 51.2842C50.9938 50.9562 50.818 50.5705 50.715 50.1532C50.6121 49.7359 50.5843 49.2967 50.6335 48.8653C50.6827 48.4339 50.8079 48.0203 51.0005 47.6524C51.193 47.2846 51.4486 46.971 51.7498 46.7329C51.5939 46.4409 51.5112 46.1004 51.5117 45.7527C51.5024 45.3279 51.622 44.9138 51.848 44.5886C52.074 44.2635 52.3907 44.05 52.738 43.9885C53.0854 43.927 53.4393 44.0218 53.7327 44.255C54.0262 44.4882 54.2388 44.8435 54.3304 45.2537C54.5175 44.865 54.7853 44.5422 55.1073 44.3173C55.4292 44.0924 55.7941 43.9733 56.1658 43.9718C57.3496 43.9718 58.3091 45.1602 58.3091 46.625C58.3095 46.9373 58.2652 47.2472 58.1782 47.5412C58.2214 47.5412 58.2652 47.5328 58.3091 47.5328C59.2596 47.5328 60.0297 48.486 60.0297 49.6626C60.0297 49.7351 60.0297 49.8067 60.0206 49.8775C60.4074 50.0874 60.7354 50.4288 60.9649 50.8602C61.1943 51.2916 61.3153 51.7944 61.313 52.3074C61.313 53.7681 60.3562 54.9523 59.1767 54.9523C59.0527 54.952 58.929 54.9385 58.807 54.9118C58.8132 54.9961 58.8174 55.0888 58.8174 55.179C58.8174 56.8183 57.7444 58.1466 56.42 58.1466C55.9305 58.147 55.4531 57.9622 55.0545 57.6182C54.7336 57.9588 54.3213 58.1466 53.8945 58.1466C52.9057 58.1466 52.1036 57.1538 52.1036 55.9291C52.1036 55.876 52.1036 55.8238 52.1098 55.7715H52.1036C51.0445 55.7715 50.1859 54.7087 50.1859 53.3972C50.1843 52.9632 50.2808 52.537 50.4649 52.1645C50.649 51.7921 50.9137 51.4877 51.2304 51.2842V51.2842Z" fill="url(#paint23_linear)"/>
<path d="M51.5075 51.2707C51.2852 50.9628 51.1201 50.6007 51.0233 50.2089C50.9265 49.8171 50.9003 49.4048 50.9465 48.9997C50.9927 48.5946 51.1102 48.2062 51.2911 47.8608C51.472 47.5154 51.712 47.221 51.9949 46.9975C51.8485 46.7237 51.7709 46.4042 51.7714 46.078C51.7629 45.6794 51.8754 45.2909 52.0875 44.9859C52.2996 44.681 52.5968 44.4807 52.9227 44.4229C53.2486 44.3652 53.5807 44.4541 53.8561 44.6727C54.1316 44.8913 54.3312 45.2246 54.4174 45.6094C54.593 45.2445 54.8444 44.9414 55.1465 44.7303C55.4487 44.5192 55.7912 44.4073 56.1401 44.4058C57.2542 44.4058 58.1517 45.5209 58.1517 46.8964C58.152 47.1894 58.1103 47.4803 58.0285 47.7561C58.0696 47.7561 58.11 47.7485 58.1517 47.7485C59.0437 47.7485 59.7665 48.6436 59.7665 49.7477C59.7665 49.816 59.7665 49.8834 59.7581 49.9492C60.1212 50.1462 60.4291 50.4666 60.6444 50.8715C60.8598 51.2764 60.9733 51.7483 60.9711 52.2299C60.9711 53.6012 60.0736 54.7121 58.9657 54.7121C58.849 54.7119 58.7325 54.6992 58.6176 54.6741C58.6238 54.7584 58.6273 54.8427 58.6273 54.927C58.6273 56.4652 57.6198 57.7126 56.3768 57.7126C55.9175 57.7127 55.4696 57.5391 55.0956 57.2161C54.7947 57.5357 54.4082 57.7121 54.008 57.7126C53.0798 57.7126 52.3271 56.7812 52.3271 55.6316C52.3271 55.5819 52.3271 55.533 52.3334 55.4841H52.3271C51.3328 55.4841 50.5271 54.4862 50.5271 53.2556C50.5254 52.848 50.6159 52.4476 50.7887 52.0977C50.9615 51.7478 51.2101 51.4619 51.5075 51.2707Z" fill="#00897B"/>
<path d="M55.5796 48.0916H55.0566V63.8282H55.5796V48.0916Z" fill="url(#paint24_linear)"/>
<path d="M55.4312 48.3125H55.168V63.8283H55.4312V48.3125Z" fill="#795548"/>
<path d="M53.298 50.0714L53.1049 50.2878L55.2622 53.1078L55.4554 52.8914L53.298 50.0714Z" fill="#795548"/>
<path d="M57.5175 53.2772L55.2803 55.2883L55.4373 55.5441L57.6744 53.533L57.5175 53.2772Z" fill="#795548"/>
<path d="M54.5114 53.0341C54.8644 52.5794 55.0611 51.9791 55.0615 51.3552C55.0599 50.9243 54.9661 50.5012 54.7891 50.1274C54.6122 49.7535 54.3582 49.4415 54.0519 49.2219C54.1884 48.9804 54.2613 48.6945 54.2608 48.4018C54.2608 47.5792 53.6905 46.9117 52.9872 46.9117C52.7155 46.9083 52.4501 47.0107 52.2301 47.2037C52.0101 47.3967 51.8471 47.6702 51.7652 47.9838C51.5915 47.6531 51.3512 47.3813 51.0669 47.1938C50.7827 47.0062 50.4637 46.9092 50.14 46.9117C49.0914 46.9117 48.2418 47.9054 48.2418 49.1317C48.2417 49.3936 48.2811 49.6532 48.3581 49.8979C48.3198 49.8979 48.2808 49.8911 48.2418 49.8911C47.4007 49.8911 46.7183 50.6885 46.7183 51.6729C46.7183 51.7329 46.7209 51.7928 46.726 51.8524C46.3905 52.0162 46.1027 52.2968 45.899 52.6587C45.6954 53.0206 45.585 53.4475 45.5819 53.8854C45.5819 55.1075 46.4293 56.0978 47.4738 56.0978C47.5835 56.0976 47.693 56.0864 47.8011 56.0641C47.7955 56.1374 47.792 56.2124 47.792 56.2875C47.792 57.6588 48.7425 58.7705 49.9151 58.7705C50.3454 58.7717 50.7663 58.6176 51.1239 58.328C51.4136 58.6179 51.7778 58.7762 52.1537 58.7755C53.0297 58.7755 53.7399 57.9453 53.7399 56.9213C53.7399 56.8766 53.7399 56.837 53.7344 56.7898H53.7399C54.6779 56.7898 55.4382 55.9006 55.4382 54.8032C55.436 54.4329 55.3479 54.0708 55.1841 53.758C55.0202 53.4453 54.7872 53.1945 54.5114 53.0341V53.0341Z" fill="url(#paint25_linear)"/>
<path d="M54.3401 53.0264C54.6789 52.5916 54.8682 52.0168 54.8693 51.4191C54.8674 51.0072 54.7773 50.6029 54.608 50.2456C54.4386 49.8883 54.1957 49.5902 53.9028 49.3803C54.0342 49.1495 54.1046 48.8759 54.1048 48.5956C54.1048 47.8084 53.5589 47.1695 52.8855 47.1695C52.6254 47.1663 52.3713 47.2643 52.1607 47.4491C51.95 47.634 51.7941 47.8958 51.7157 48.1961C51.5495 47.8795 51.3195 47.6193 51.0474 47.4397C50.7754 47.2602 50.4701 47.1672 50.1602 47.1695C49.1568 47.1695 48.3435 48.1211 48.3435 49.2943C48.3434 49.5449 48.3812 49.7934 48.4549 50.0276C48.418 50.0276 48.3811 50.0208 48.3435 50.0208C47.5379 50.0208 46.8854 50.7845 46.8854 51.7259C46.8856 51.7822 46.8882 51.8385 46.8931 51.8945C46.572 52.0512 46.2966 52.3197 46.1016 52.666C45.9066 53.0122 45.8009 53.4207 45.7978 53.8398C45.7978 55.0096 46.6083 55.9578 47.6082 55.9578C47.7132 55.9577 47.818 55.947 47.9215 55.9258C47.916 55.9966 47.9132 56.0674 47.9132 56.1399C47.9132 57.4522 48.8233 58.5167 49.945 58.5167C50.3568 58.5186 50.7597 58.3718 51.1023 58.0953C51.3794 58.3695 51.7268 58.5185 52.0848 58.5167C52.9203 58.5167 53.6027 57.7219 53.6027 56.7417C53.6027 56.6995 53.6027 56.6574 53.5972 56.6161H53.6027C54.5003 56.6161 55.2286 55.7648 55.2286 54.7146C55.2255 54.3609 55.1406 54.0153 54.9836 53.7169C54.8266 53.4185 54.6037 53.1794 54.3401 53.0264Z" fill="#009688"/>
<path d="M51.2033 50.541H50.6086V63.7491H51.2033V50.541Z" fill="url(#paint26_linear)"/>
<path d="M51.0598 50.541H50.7311V63.7491H51.0598V50.541Z" fill="#795548"/>
<path d="M52.6935 51.952L50.7452 54.3577L50.9799 54.6362L52.9282 52.2305L52.6935 51.952Z" fill="#795548"/>
<path d="M48.9368 54.6871L48.748 55.0127L50.768 56.7285L50.9568 56.4029L48.9368 54.6871Z" fill="#795548"/>
</g>
<path d="M72.8359 59.6133C74.125 59.6133 75.2513 59.2227 76.2148 58.4414C77.1784 57.6602 77.7122 56.6836 77.8164 55.5117H81.2344C81.1693 56.7227 80.7526 57.875 79.9844 58.9688C79.2161 60.0625 78.1875 60.9349 76.8984 61.5859C75.6224 62.237 74.2682 62.5625 72.8359 62.5625C69.9583 62.5625 67.6667 61.6055 65.9609 59.6914C64.2682 57.7643 63.4219 55.1341 63.4219 51.8008V51.1953C63.4219 49.138 63.7995 47.3086 64.5547 45.707C65.3099 44.1055 66.3906 42.862 67.7969 41.9766C69.2161 41.0911 70.8893 40.6484 72.8164 40.6484C75.1862 40.6484 77.1523 41.3581 78.7148 42.7773C80.2904 44.1966 81.1302 46.0391 81.2344 48.3047H77.8164C77.7122 46.9375 77.1914 45.8177 76.2539 44.9453C75.3294 44.0599 74.1836 43.6172 72.8164 43.6172C70.9805 43.6172 69.5547 44.2812 68.5391 45.6094C67.5365 46.9245 67.0352 48.832 67.0352 51.332V52.0156C67.0352 54.4505 67.5365 56.3255 68.5391 57.6406C69.5417 58.9557 70.974 59.6133 72.8359 59.6133ZM95.5117 44.2812C94.9648 44.1901 94.3724 44.1445 93.7344 44.1445C91.3646 44.1445 89.7565 45.1536 88.9102 47.1719V62.1719H85.2969V41.0391H88.8125L88.8711 43.4805C90.056 41.5924 91.7357 40.6484 93.9102 40.6484C94.6133 40.6484 95.1471 40.7396 95.5117 40.9219V44.2812ZM97.5039 51.4102C97.5039 49.3398 97.9076 47.4779 98.7148 45.8242C99.5352 44.1706 100.668 42.8945 102.113 41.9961C103.572 41.0977 105.232 40.6484 107.094 40.6484C109.971 40.6484 112.296 41.6445 114.066 43.6367C115.85 45.6289 116.742 48.2786 116.742 51.5859V51.8398C116.742 53.8971 116.345 55.7461 115.551 57.3867C114.77 59.0143 113.643 60.2839 112.172 61.1953C110.714 62.1068 109.034 62.5625 107.133 62.5625C104.268 62.5625 101.944 61.5664 100.16 59.5742C98.3893 57.582 97.5039 54.9453 97.5039 51.6641V51.4102ZM101.137 51.8398C101.137 54.1836 101.677 56.0651 102.758 57.4844C103.852 58.9036 105.31 59.6133 107.133 59.6133C108.969 59.6133 110.427 58.8971 111.508 57.4648C112.589 56.0195 113.129 54.0013 113.129 51.4102C113.129 49.0924 112.576 47.2174 111.469 45.7852C110.375 44.3398 108.917 43.6172 107.094 43.6172C105.31 43.6172 103.871 44.3268 102.777 45.7461C101.684 47.1654 101.137 49.1966 101.137 51.8398ZM133.578 56.5664C133.578 55.5898 133.207 54.8346 132.465 54.3008C131.736 53.7539 130.453 53.2852 128.617 52.8945C126.794 52.5039 125.342 52.0352 124.262 51.4883C123.194 50.9414 122.4 50.2904 121.879 49.5352C121.371 48.7799 121.117 47.8815 121.117 46.8398C121.117 45.1081 121.846 43.6432 123.305 42.4453C124.776 41.2474 126.651 40.6484 128.93 40.6484C131.326 40.6484 133.266 41.2669 134.75 42.5039C136.247 43.7409 136.996 45.3229 136.996 47.25H133.363C133.363 46.2604 132.94 45.4076 132.094 44.6914C131.26 43.9753 130.206 43.6172 128.93 43.6172C127.615 43.6172 126.586 43.9036 125.844 44.4766C125.102 45.0495 124.73 45.7982 124.73 46.7227C124.73 47.5951 125.076 48.2526 125.766 48.6953C126.456 49.138 127.699 49.5612 129.496 49.9648C131.306 50.3685 132.771 50.8503 133.891 51.4102C135.01 51.9701 135.837 52.6471 136.371 53.4414C136.918 54.2227 137.191 55.1797 137.191 56.3125C137.191 58.2005 136.436 59.7174 134.926 60.8633C133.415 61.9961 131.456 62.5625 129.047 62.5625C127.354 62.5625 125.857 62.263 124.555 61.6641C123.253 61.0651 122.23 60.2318 121.488 59.1641C120.759 58.0833 120.395 56.918 120.395 55.668H124.008C124.073 56.8789 124.555 57.8424 125.453 58.5586C126.365 59.2617 127.562 59.6133 129.047 59.6133C130.414 59.6133 131.508 59.3398 132.328 58.793C133.161 58.2331 133.578 57.4909 133.578 56.5664ZM141.039 51.4297C141.039 48.1354 141.801 45.5182 143.324 43.5781C144.848 41.625 146.866 40.6484 149.379 40.6484C151.957 40.6484 153.969 41.5599 155.414 43.3828L155.59 41.0391H158.891V61.6641C158.891 64.3984 158.077 66.5534 156.449 68.1289C154.835 69.7044 152.66 70.4922 149.926 70.4922C148.402 70.4922 146.911 70.1667 145.453 69.5156C143.995 68.8646 142.882 67.9727 142.113 66.8398L143.988 64.6719C145.538 66.5859 147.432 67.543 149.672 67.543C151.43 67.543 152.797 67.0482 153.773 66.0586C154.763 65.069 155.258 63.6758 155.258 61.8789V60.0625C153.812 61.7292 151.84 62.5625 149.34 62.5625C146.866 62.5625 144.861 61.5664 143.324 59.5742C141.801 57.582 141.039 54.8672 141.039 51.4297ZM144.672 51.8398C144.672 54.2227 145.16 56.0977 146.137 57.4648C147.113 58.819 148.48 59.4961 150.238 59.4961C152.517 59.4961 154.19 58.4609 155.258 56.3906V46.7422C154.151 44.724 152.491 43.7148 150.277 43.7148C148.52 43.7148 147.146 44.3984 146.156 45.7656C145.167 47.1328 144.672 49.1576 144.672 51.8398ZM174.574 44.2812C174.027 44.1901 173.435 44.1445 172.797 44.1445C170.427 44.1445 168.819 45.1536 167.973 47.1719V62.1719H164.359V41.0391H167.875L167.934 43.4805C169.118 41.5924 170.798 40.6484 172.973 40.6484C173.676 40.6484 174.21 40.7396 174.574 40.9219V44.2812ZM176.566 51.4102C176.566 49.3398 176.97 47.4779 177.777 45.8242C178.598 44.1706 179.73 42.8945 181.176 41.9961C182.634 41.0977 184.294 40.6484 186.156 40.6484C189.034 40.6484 191.358 41.6445 193.129 43.6367C194.913 45.6289 195.805 48.2786 195.805 51.5859V51.8398C195.805 53.8971 195.408 55.7461 194.613 57.3867C193.832 59.0143 192.706 60.2839 191.234 61.1953C189.776 62.1068 188.096 62.5625 186.195 62.5625C183.331 62.5625 181.007 61.5664 179.223 59.5742C177.452 57.582 176.566 54.9453 176.566 51.6641V51.4102ZM180.199 51.8398C180.199 54.1836 180.74 56.0651 181.82 57.4844C182.914 58.9036 184.372 59.6133 186.195 59.6133C188.031 59.6133 189.49 58.8971 190.57 57.4648C191.651 56.0195 192.191 54.0013 192.191 51.4102C192.191 49.0924 191.638 47.2174 190.531 45.7852C189.438 44.3398 187.979 43.6172 186.156 43.6172C184.372 43.6172 182.934 44.3268 181.84 45.7461C180.746 47.1654 180.199 49.1966 180.199 51.8398ZM206.996 57.2695L212.23 41.0391H215.922L208.344 62.1719H205.59L197.934 41.0391H201.625L206.996 57.2695ZM227.895 62.5625C225.03 62.5625 222.699 61.625 220.902 59.75C219.105 57.862 218.207 55.3424 218.207 52.1914V51.5273C218.207 49.431 218.604 47.5625 219.398 45.9219C220.206 44.2682 221.326 42.9792 222.758 42.0547C224.203 41.1172 225.766 40.6484 227.445 40.6484C230.193 40.6484 232.328 41.5534 233.852 43.3633C235.375 45.1732 236.137 47.7643 236.137 51.1367V52.6406H221.82C221.872 54.724 222.478 56.4102 223.637 57.6992C224.809 58.9753 226.293 59.6133 228.09 59.6133C229.366 59.6133 230.447 59.3529 231.332 58.832C232.217 58.3112 232.992 57.6211 233.656 56.7617L235.863 58.4805C234.092 61.2018 231.436 62.5625 227.895 62.5625ZM227.445 43.6172C225.987 43.6172 224.763 44.151 223.773 45.2188C222.784 46.2734 222.172 47.7578 221.938 49.6719H232.523V49.3984C232.419 47.5625 231.924 46.1432 231.039 45.1406C230.154 44.125 228.956 43.6172 227.445 43.6172Z" fill="#766B6B"/>
<path d="M8.80566 72.8018H6.46777V76.8281H5.14844V66.875H8.44336C9.56445 66.875 10.4258 67.1302 11.0273 67.6406C11.6335 68.151 11.9365 68.8939 11.9365 69.8691C11.9365 70.4889 11.7679 71.029 11.4307 71.4893C11.098 71.9495 10.6331 72.2936 10.0361 72.5215L12.374 76.7461V76.8281H10.9658L8.80566 72.8018ZM6.46777 71.7285H8.48438C9.13607 71.7285 9.65332 71.5599 10.0361 71.2227C10.4235 70.8854 10.6172 70.4342 10.6172 69.8691C10.6172 69.2539 10.4326 68.7822 10.0635 68.4541C9.69889 68.126 9.17025 67.9596 8.47754 67.9551H6.46777V71.7285ZM16.6533 76.9648C15.6507 76.9648 14.835 76.6367 14.2061 75.9805C13.5771 75.3197 13.2627 74.4378 13.2627 73.335V73.1025C13.2627 72.3688 13.4017 71.7148 13.6797 71.1406C13.9622 70.5618 14.3542 70.1107 14.8555 69.7871C15.3613 69.459 15.9082 69.2949 16.4961 69.2949C17.4577 69.2949 18.2051 69.6117 18.7383 70.2451C19.2715 70.8786 19.5381 71.7855 19.5381 72.9658V73.4922H14.5273C14.5456 74.2214 14.7575 74.8115 15.1631 75.2627C15.5732 75.7093 16.0928 75.9326 16.7217 75.9326C17.1683 75.9326 17.5465 75.8415 17.8564 75.6592C18.1663 75.4769 18.4375 75.2354 18.6699 74.9346L19.4424 75.5361C18.8226 76.4886 17.8929 76.9648 16.6533 76.9648ZM16.4961 70.334C15.9857 70.334 15.5573 70.5208 15.2109 70.8945C14.8646 71.2637 14.6504 71.7832 14.5684 72.4531H18.2734V72.3574C18.237 71.7148 18.0638 71.2181 17.7539 70.8672C17.444 70.5117 17.0247 70.334 16.4961 70.334ZM25.5742 76.8281C25.5013 76.6823 25.4421 76.4225 25.3965 76.0488C24.8086 76.6595 24.1068 76.9648 23.291 76.9648C22.5618 76.9648 21.9626 76.7598 21.4932 76.3496C21.0283 75.9349 20.7959 75.4108 20.7959 74.7773C20.7959 74.0072 21.0876 73.4102 21.6709 72.9863C22.2588 72.5579 23.0837 72.3438 24.1455 72.3438H25.376V71.7627C25.376 71.3206 25.2438 70.9697 24.9795 70.71C24.7152 70.4456 24.3255 70.3135 23.8105 70.3135C23.3594 70.3135 22.9811 70.4274 22.6758 70.6553C22.3704 70.8831 22.2178 71.1589 22.2178 71.4824H20.9463C20.9463 71.1133 21.0762 70.7578 21.3359 70.416C21.6003 70.0697 21.9557 69.7962 22.4023 69.5957C22.8535 69.3952 23.348 69.2949 23.8857 69.2949C24.738 69.2949 25.4056 69.5091 25.8887 69.9375C26.3717 70.3613 26.6224 70.9469 26.6406 71.6943V75.0986C26.6406 75.7777 26.7272 76.3177 26.9004 76.7188V76.8281H25.5742ZM23.4756 75.8643C23.8721 75.8643 24.248 75.7617 24.6035 75.5566C24.959 75.3516 25.2165 75.085 25.376 74.7568V73.2393H24.3848C22.8353 73.2393 22.0605 73.6927 22.0605 74.5996C22.0605 74.9961 22.1927 75.306 22.457 75.5293C22.7214 75.7526 23.0609 75.8643 23.4756 75.8643ZM29.9971 76.8281H28.7324V66.3281H29.9971V76.8281ZM41.3242 72.2275H37.0107V75.7549H42.0215V76.8281H35.6982V66.875H41.9531V67.9551H37.0107V71.1543H41.3242V72.2275ZM47.7637 74.8662C47.7637 74.5244 47.6338 74.2601 47.374 74.0732C47.1188 73.8818 46.6699 73.7178 46.0273 73.5811C45.3893 73.4443 44.8812 73.2803 44.5029 73.0889C44.1292 72.8975 43.8512 72.6696 43.6689 72.4053C43.4912 72.141 43.4023 71.8265 43.4023 71.4619C43.4023 70.8558 43.6576 70.3431 44.168 69.9238C44.6829 69.5046 45.3392 69.2949 46.1367 69.2949C46.9753 69.2949 47.6543 69.5114 48.1738 69.9443C48.6979 70.3773 48.96 70.931 48.96 71.6055H47.6885C47.6885 71.2591 47.5404 70.9606 47.2441 70.71C46.9525 70.4593 46.5833 70.334 46.1367 70.334C45.6764 70.334 45.3164 70.4342 45.0566 70.6348C44.7969 70.8353 44.667 71.0973 44.667 71.4209C44.667 71.7262 44.7878 71.9564 45.0293 72.1113C45.2708 72.2663 45.7061 72.4144 46.335 72.5557C46.9684 72.6969 47.4811 72.8656 47.873 73.0615C48.265 73.2575 48.5544 73.4945 48.7412 73.7725C48.9326 74.0459 49.0283 74.3809 49.0283 74.7773C49.0283 75.4382 48.764 75.9691 48.2354 76.3701C47.7067 76.7666 47.0208 76.9648 46.1777 76.9648C45.5853 76.9648 45.0612 76.86 44.6055 76.6504C44.1497 76.4408 43.792 76.1491 43.5322 75.7754C43.277 75.3971 43.1494 74.9893 43.1494 74.5518H44.4141C44.4368 74.9756 44.6055 75.3128 44.9199 75.5635C45.2389 75.8096 45.6582 75.9326 46.1777 75.9326C46.6562 75.9326 47.0391 75.8369 47.3262 75.6455C47.6178 75.4495 47.7637 75.1898 47.7637 74.8662ZM52.3916 67.6406V69.4316H53.7725V70.4092H52.3916V74.9961C52.3916 75.2923 52.4531 75.5156 52.5762 75.666C52.6992 75.8118 52.9089 75.8848 53.2051 75.8848C53.3509 75.8848 53.5514 75.8574 53.8066 75.8027V76.8281C53.474 76.9193 53.1504 76.9648 52.8359 76.9648C52.2708 76.9648 51.8447 76.7939 51.5576 76.4521C51.2705 76.1104 51.127 75.625 51.127 74.9961V70.4092H49.7803V69.4316H51.127V67.6406H52.3916ZM59.8223 76.8281C59.7493 76.6823 59.6901 76.4225 59.6445 76.0488C59.0566 76.6595 58.3548 76.9648 57.5391 76.9648C56.8099 76.9648 56.2106 76.7598 55.7412 76.3496C55.2764 75.9349 55.0439 75.4108 55.0439 74.7773C55.0439 74.0072 55.3356 73.4102 55.9189 72.9863C56.5068 72.5579 57.3317 72.3438 58.3936 72.3438H59.624V71.7627C59.624 71.3206 59.4919 70.9697 59.2275 70.71C58.9632 70.4456 58.5736 70.3135 58.0586 70.3135C57.6074 70.3135 57.2292 70.4274 56.9238 70.6553C56.6185 70.8831 56.4658 71.1589 56.4658 71.4824H55.1943C55.1943 71.1133 55.3242 70.7578 55.584 70.416C55.8483 70.0697 56.2038 69.7962 56.6504 69.5957C57.1016 69.3952 57.596 69.2949 58.1338 69.2949C58.986 69.2949 59.6536 69.5091 60.1367 69.9375C60.6198 70.3613 60.8704 70.9469 60.8887 71.6943V75.0986C60.8887 75.7777 60.9753 76.3177 61.1484 76.7188V76.8281H59.8223ZM57.7236 75.8643C58.1201 75.8643 58.4961 75.7617 58.8516 75.5566C59.207 75.3516 59.4645 75.085 59.624 74.7568V73.2393H58.6328C57.0833 73.2393 56.3086 73.6927 56.3086 74.5996C56.3086 74.9961 56.4408 75.306 56.7051 75.5293C56.9694 75.7526 57.3089 75.8643 57.7236 75.8643ZM64.5869 67.6406V69.4316H65.9678V70.4092H64.5869V74.9961C64.5869 75.2923 64.6484 75.5156 64.7715 75.666C64.8945 75.8118 65.1042 75.8848 65.4004 75.8848C65.5462 75.8848 65.7467 75.8574 66.002 75.8027V76.8281C65.6693 76.9193 65.3457 76.9648 65.0312 76.9648C64.4661 76.9648 64.04 76.7939 63.7529 76.4521C63.4658 76.1104 63.3223 75.625 63.3223 74.9961V70.4092H61.9756V69.4316H63.3223V67.6406H64.5869ZM70.5205 76.9648C69.5179 76.9648 68.7021 76.6367 68.0732 75.9805C67.4443 75.3197 67.1299 74.4378 67.1299 73.335V73.1025C67.1299 72.3688 67.2689 71.7148 67.5469 71.1406C67.8294 70.5618 68.2214 70.1107 68.7227 69.7871C69.2285 69.459 69.7754 69.2949 70.3633 69.2949C71.3249 69.2949 72.0723 69.6117 72.6055 70.2451C73.1387 70.8786 73.4053 71.7855 73.4053 72.9658V73.4922H68.3945C68.4128 74.2214 68.6247 74.8115 69.0303 75.2627C69.4404 75.7093 69.96 75.9326 70.5889 75.9326C71.0355 75.9326 71.4137 75.8415 71.7236 75.6592C72.0335 75.4769 72.3047 75.2354 72.5371 74.9346L73.3096 75.5361C72.6898 76.4886 71.7601 76.9648 70.5205 76.9648ZM70.3633 70.334C69.8529 70.334 69.4245 70.5208 69.0781 70.8945C68.7318 71.2637 68.5176 71.7832 68.4355 72.4531H72.1406V72.3574C72.1042 71.7148 71.931 71.2181 71.6211 70.8672C71.3112 70.5117 70.8919 70.334 70.3633 70.334ZM79.6055 78.6738H78.5869V66.875H79.6055V78.6738ZM86.8447 76.8281H85.5322V66.875H86.8447V76.8281ZM90.249 69.4316L90.29 70.3613C90.8551 69.6504 91.5934 69.2949 92.5049 69.2949C94.068 69.2949 94.8564 70.1768 94.8701 71.9404V76.8281H93.6055V71.9336C93.6009 71.4004 93.4779 71.0062 93.2363 70.751C92.9993 70.4958 92.6279 70.3682 92.1221 70.3682C91.7119 70.3682 91.3519 70.4775 91.042 70.6963C90.7321 70.915 90.4906 71.2021 90.3174 71.5576V76.8281H89.0527V69.4316H90.249ZM99.2178 75.1123L101.05 69.4316H102.342L99.6895 76.8281H98.7256L96.0459 69.4316H97.3379L99.2178 75.1123ZM106.532 76.9648C105.53 76.9648 104.714 76.6367 104.085 75.9805C103.456 75.3197 103.142 74.4378 103.142 73.335V73.1025C103.142 72.3688 103.281 71.7148 103.559 71.1406C103.841 70.5618 104.233 70.1107 104.734 69.7871C105.24 69.459 105.787 69.2949 106.375 69.2949C107.337 69.2949 108.084 69.6117 108.617 70.2451C109.15 70.8786 109.417 71.7855 109.417 72.9658V73.4922H104.406C104.424 74.2214 104.636 74.8115 105.042 75.2627C105.452 75.7093 105.972 75.9326 106.601 75.9326C107.047 75.9326 107.425 75.8415 107.735 75.6592C108.045 75.4769 108.316 75.2354 108.549 74.9346L109.321 75.5361C108.701 76.4886 107.772 76.9648 106.532 76.9648ZM106.375 70.334C105.865 70.334 105.436 70.5208 105.09 70.8945C104.743 71.2637 104.529 71.7832 104.447 72.4531H108.152V72.3574C108.116 71.7148 107.943 71.2181 107.633 70.8672C107.323 70.5117 106.904 70.334 106.375 70.334ZM115.193 74.8662C115.193 74.5244 115.063 74.2601 114.804 74.0732C114.549 73.8818 114.1 73.7178 113.457 73.5811C112.819 73.4443 112.311 73.2803 111.933 73.0889C111.559 72.8975 111.281 72.6696 111.099 72.4053C110.921 72.141 110.832 71.8265 110.832 71.4619C110.832 70.8558 111.087 70.3431 111.598 69.9238C112.113 69.5046 112.769 69.2949 113.566 69.2949C114.405 69.2949 115.084 69.5114 115.604 69.9443C116.128 70.3773 116.39 70.931 116.39 71.6055H115.118C115.118 71.2591 114.97 70.9606 114.674 70.71C114.382 70.4593 114.013 70.334 113.566 70.334C113.106 70.334 112.746 70.4342 112.486 70.6348C112.227 70.8353 112.097 71.0973 112.097 71.4209C112.097 71.7262 112.217 71.9564 112.459 72.1113C112.701 72.2663 113.136 72.4144 113.765 72.5557C114.398 72.6969 114.911 72.8656 115.303 73.0615C115.695 73.2575 115.984 73.4945 116.171 73.7725C116.362 74.0459 116.458 74.3809 116.458 74.7773C116.458 75.4382 116.194 75.9691 115.665 76.3701C115.136 76.7666 114.451 76.9648 113.607 76.9648C113.015 76.9648 112.491 76.86 112.035 76.6504C111.579 76.4408 111.222 76.1491 110.962 75.7754C110.707 75.3971 110.579 74.9893 110.579 74.5518H111.844C111.867 74.9756 112.035 75.3128 112.35 75.5635C112.669 75.8096 113.088 75.9326 113.607 75.9326C114.086 75.9326 114.469 75.8369 114.756 75.6455C115.048 75.4495 115.193 75.1898 115.193 74.8662ZM119.821 67.6406V69.4316H121.202V70.4092H119.821V74.9961C119.821 75.2923 119.883 75.5156 120.006 75.666C120.129 75.8118 120.339 75.8848 120.635 75.8848C120.781 75.8848 120.981 75.8574 121.236 75.8027V76.8281C120.904 76.9193 120.58 76.9648 120.266 76.9648C119.701 76.9648 119.274 76.7939 118.987 76.4521C118.7 76.1104 118.557 75.625 118.557 74.9961V70.4092H117.21V69.4316H118.557V67.6406H119.821ZM123.875 69.4316L123.909 70.252C124.451 69.6139 125.183 69.2949 126.104 69.2949C127.138 69.2949 127.842 69.6914 128.216 70.4844C128.462 70.1289 128.781 69.8418 129.173 69.623C129.569 69.4043 130.036 69.2949 130.574 69.2949C132.197 69.2949 133.021 70.154 133.049 71.8721V76.8281H131.784V71.9473C131.784 71.4186 131.663 71.0244 131.422 70.7646C131.18 70.5003 130.775 70.3682 130.205 70.3682C129.736 70.3682 129.346 70.5094 129.036 70.792C128.726 71.07 128.546 71.446 128.496 71.9199V76.8281H127.225V71.9814C127.225 70.9059 126.698 70.3682 125.646 70.3682C124.816 70.3682 124.249 70.7214 123.943 71.4277V76.8281H122.679V69.4316H123.875ZM138.032 76.9648C137.03 76.9648 136.214 76.6367 135.585 75.9805C134.956 75.3197 134.642 74.4378 134.642 73.335V73.1025C134.642 72.3688 134.781 71.7148 135.059 71.1406C135.341 70.5618 135.733 70.1107 136.234 69.7871C136.74 69.459 137.287 69.2949 137.875 69.2949C138.837 69.2949 139.584 69.6117 140.117 70.2451C140.65 70.8786 140.917 71.7855 140.917 72.9658V73.4922H135.906C135.924 74.2214 136.136 74.8115 136.542 75.2627C136.952 75.7093 137.472 75.9326 138.101 75.9326C138.547 75.9326 138.925 75.8415 139.235 75.6592C139.545 75.4769 139.816 75.2354 140.049 74.9346L140.821 75.5361C140.201 76.4886 139.272 76.9648 138.032 76.9648ZM137.875 70.334C137.365 70.334 136.936 70.5208 136.59 70.8945C136.243 71.2637 136.029 71.7832 135.947 72.4531H139.652V72.3574C139.616 71.7148 139.443 71.2181 139.133 70.8672C138.823 70.5117 138.404 70.334 137.875 70.334ZM143.583 69.4316L143.624 70.3613C144.189 69.6504 144.927 69.2949 145.839 69.2949C147.402 69.2949 148.19 70.1768 148.204 71.9404V76.8281H146.939V71.9336C146.935 71.4004 146.812 71.0062 146.57 70.751C146.333 70.4958 145.962 70.3682 145.456 70.3682C145.046 70.3682 144.686 70.4775 144.376 70.6963C144.066 70.915 143.825 71.2021 143.651 71.5576V76.8281H142.387V69.4316H143.583ZM151.827 67.6406V69.4316H153.208V70.4092H151.827V74.9961C151.827 75.2923 151.889 75.5156 152.012 75.666C152.135 75.8118 152.344 75.8848 152.641 75.8848C152.786 75.8848 152.987 75.8574 153.242 75.8027V76.8281C152.91 76.9193 152.586 76.9648 152.271 76.9648C151.706 76.9648 151.28 76.7939 150.993 76.4521C150.706 76.1104 150.562 75.625 150.562 74.9961V70.4092H149.216V69.4316H150.562V67.6406H151.827ZM158.998 74.8662C158.998 74.5244 158.868 74.2601 158.608 74.0732C158.353 73.8818 157.904 73.7178 157.262 73.5811C156.624 73.4443 156.116 73.2803 155.737 73.0889C155.364 72.8975 155.086 72.6696 154.903 72.4053C154.726 72.141 154.637 71.8265 154.637 71.4619C154.637 70.8558 154.892 70.3431 155.402 69.9238C155.917 69.5046 156.574 69.2949 157.371 69.2949C158.21 69.2949 158.889 69.5114 159.408 69.9443C159.932 70.3773 160.194 70.931 160.194 71.6055H158.923C158.923 71.2591 158.775 70.9606 158.479 70.71C158.187 70.4593 157.818 70.334 157.371 70.334C156.911 70.334 156.551 70.4342 156.291 70.6348C156.031 70.8353 155.901 71.0973 155.901 71.4209C155.901 71.7262 156.022 71.9564 156.264 72.1113C156.505 72.2663 156.94 72.4144 157.569 72.5557C158.203 72.6969 158.715 72.8656 159.107 73.0615C159.499 73.2575 159.789 73.4945 159.976 73.7725C160.167 74.0459 160.263 74.3809 160.263 74.7773C160.263 75.4382 159.998 75.9691 159.47 76.3701C158.941 76.7666 158.255 76.9648 157.412 76.9648C156.82 76.9648 156.296 76.86 155.84 76.6504C155.384 76.4408 155.026 76.1491 154.767 75.7754C154.511 75.3971 154.384 74.9893 154.384 74.5518H155.648C155.671 74.9756 155.84 75.3128 156.154 75.5635C156.473 75.8096 156.893 75.9326 157.412 75.9326C157.891 75.9326 158.273 75.8369 158.561 75.6455C158.852 75.4495 158.998 75.1898 158.998 74.8662ZM166.641 78.6738H165.622V66.875H166.641V78.6738ZM179.075 67.9551H175.876V76.8281H174.57V67.9551H171.378V66.875H179.075V67.9551ZM182.739 76.9648C181.737 76.9648 180.921 76.6367 180.292 75.9805C179.663 75.3197 179.349 74.4378 179.349 73.335V73.1025C179.349 72.3688 179.488 71.7148 179.766 71.1406C180.048 70.5618 180.44 70.1107 180.941 69.7871C181.447 69.459 181.994 69.2949 182.582 69.2949C183.544 69.2949 184.291 69.6117 184.824 70.2451C185.357 70.8786 185.624 71.7855 185.624 72.9658V73.4922H180.613C180.632 74.2214 180.843 74.8115 181.249 75.2627C181.659 75.7093 182.179 75.9326 182.808 75.9326C183.254 75.9326 183.632 75.8415 183.942 75.6592C184.252 75.4769 184.523 75.2354 184.756 74.9346L185.528 75.5361C184.909 76.4886 183.979 76.9648 182.739 76.9648ZM182.582 70.334C182.072 70.334 181.643 70.5208 181.297 70.8945C180.951 71.2637 180.736 71.7832 180.654 72.4531H184.359V72.3574C184.323 71.7148 184.15 71.2181 183.84 70.8672C183.53 70.5117 183.111 70.334 182.582 70.334ZM190.061 75.9326C190.512 75.9326 190.906 75.7959 191.243 75.5225C191.58 75.249 191.767 74.9072 191.804 74.4971H193C192.977 74.9209 192.831 75.3242 192.562 75.707C192.294 76.0898 191.934 76.3952 191.482 76.623C191.036 76.8509 190.562 76.9648 190.061 76.9648C189.053 76.9648 188.251 76.6299 187.654 75.96C187.062 75.2855 186.766 74.3649 186.766 73.1982V72.9863C186.766 72.2663 186.898 71.626 187.162 71.0654C187.426 70.5049 187.805 70.0697 188.297 69.7598C188.794 69.4499 189.379 69.2949 190.054 69.2949C190.883 69.2949 191.571 69.5433 192.118 70.04C192.67 70.5368 192.964 71.1816 193 71.9746H191.804C191.767 71.4961 191.585 71.1042 191.257 70.7988C190.933 70.4889 190.532 70.334 190.054 70.334C189.411 70.334 188.912 70.5664 188.557 71.0312C188.206 71.4915 188.03 72.1592 188.03 73.0342V73.2734C188.03 74.1257 188.206 74.7819 188.557 75.2422C188.908 75.7025 189.409 75.9326 190.061 75.9326ZM195.687 70.3271C196.247 69.639 196.976 69.2949 197.874 69.2949C199.437 69.2949 200.226 70.1768 200.239 71.9404V76.8281H198.975V71.9336C198.97 71.4004 198.847 71.0062 198.605 70.751C198.368 70.4958 197.997 70.3682 197.491 70.3682C197.081 70.3682 196.721 70.4775 196.411 70.6963C196.101 70.915 195.86 71.2021 195.687 71.5576V76.8281H194.422V66.3281H195.687V70.3271ZM203.329 69.4316L203.37 70.3613C203.935 69.6504 204.674 69.2949 205.585 69.2949C207.148 69.2949 207.937 70.1768 207.95 71.9404V76.8281H206.686V71.9336C206.681 71.4004 206.558 71.0062 206.316 70.751C206.079 70.4958 205.708 70.3682 205.202 70.3682C204.792 70.3682 204.432 70.4775 204.122 70.6963C203.812 70.915 203.571 71.2021 203.397 71.5576V76.8281H202.133V69.4316H203.329ZM209.522 73.0615C209.522 72.3369 209.664 71.6852 209.946 71.1064C210.233 70.5277 210.63 70.0811 211.136 69.7666C211.646 69.4521 212.227 69.2949 212.879 69.2949C213.886 69.2949 214.7 69.6436 215.319 70.3408C215.944 71.0381 216.256 71.9655 216.256 73.123V73.2119C216.256 73.932 216.117 74.5791 215.839 75.1533C215.565 75.723 215.171 76.1673 214.656 76.4863C214.146 76.8053 213.558 76.9648 212.893 76.9648C211.89 76.9648 211.076 76.6162 210.452 75.9189C209.832 75.2217 209.522 74.2988 209.522 73.1504V73.0615ZM210.794 73.2119C210.794 74.0322 210.983 74.6908 211.361 75.1875C211.744 75.6842 212.255 75.9326 212.893 75.9326C213.535 75.9326 214.046 75.682 214.424 75.1807C214.802 74.6748 214.991 73.9684 214.991 73.0615C214.991 72.2503 214.798 71.5941 214.41 71.0928C214.027 70.5869 213.517 70.334 212.879 70.334C212.255 70.334 211.751 70.5824 211.368 71.0791C210.985 71.5758 210.794 72.2868 210.794 73.2119ZM219.216 76.8281H217.951V66.3281H219.216V76.8281ZM220.911 73.0615C220.911 72.3369 221.052 71.6852 221.335 71.1064C221.622 70.5277 222.019 70.0811 222.524 69.7666C223.035 69.4521 223.616 69.2949 224.268 69.2949C225.275 69.2949 226.088 69.6436 226.708 70.3408C227.332 71.0381 227.645 71.9655 227.645 73.123V73.2119C227.645 73.932 227.506 74.5791 227.228 75.1533C226.954 75.723 226.56 76.1673 226.045 76.4863C225.535 76.8053 224.947 76.9648 224.281 76.9648C223.279 76.9648 222.465 76.6162 221.841 75.9189C221.221 75.2217 220.911 74.2988 220.911 73.1504V73.0615ZM222.183 73.2119C222.183 74.0322 222.372 74.6908 222.75 75.1875C223.133 75.6842 223.643 75.9326 224.281 75.9326C224.924 75.9326 225.434 75.682 225.812 75.1807C226.191 74.6748 226.38 73.9684 226.38 73.0615C226.38 72.2503 226.186 71.5941 225.799 71.0928C225.416 70.5869 224.906 70.334 224.268 70.334C223.643 70.334 223.14 70.5824 222.757 71.0791C222.374 71.5758 222.183 72.2868 222.183 73.2119ZM228.93 73.0684C228.93 71.9154 229.196 70.9993 229.729 70.3203C230.263 69.6367 230.969 69.2949 231.849 69.2949C232.751 69.2949 233.455 69.6139 233.961 70.252L234.022 69.4316H235.178V76.6504C235.178 77.6074 234.893 78.3617 234.323 78.9131C233.758 79.4645 232.997 79.7402 232.04 79.7402C231.507 79.7402 230.985 79.6263 230.475 79.3984C229.964 79.1706 229.575 78.8584 229.306 78.4619L229.962 77.7031C230.504 78.373 231.167 78.708 231.951 78.708C232.566 78.708 233.045 78.5348 233.387 78.1885C233.733 77.8421 233.906 77.3545 233.906 76.7256V76.0898C233.4 76.6732 232.71 76.9648 231.835 76.9648C230.969 76.9648 230.267 76.6162 229.729 75.9189C229.196 75.2217 228.93 74.2715 228.93 73.0684ZM230.201 73.2119C230.201 74.0459 230.372 74.7021 230.714 75.1807C231.056 75.6546 231.534 75.8916 232.149 75.8916C232.947 75.8916 233.533 75.5293 233.906 74.8047V71.4277C233.519 70.7214 232.938 70.3682 232.163 70.3682C231.548 70.3682 231.067 70.6074 230.721 71.0859C230.374 71.5645 230.201 72.2731 230.201 73.2119ZM239.512 74.9756L241.234 69.4316H242.588L239.614 77.9697C239.154 79.2002 238.423 79.8154 237.42 79.8154L237.181 79.7949L236.709 79.7061V78.6807L237.051 78.708C237.479 78.708 237.812 78.6214 238.049 78.4482C238.29 78.2751 238.489 77.9583 238.644 77.498L238.924 76.7461L236.285 69.4316H237.666L239.512 74.9756ZM243.012 76.165C243.012 75.9463 243.076 75.764 243.203 75.6182C243.335 75.4723 243.531 75.3994 243.791 75.3994C244.051 75.3994 244.247 75.4723 244.379 75.6182C244.516 75.764 244.584 75.9463 244.584 76.165C244.584 76.3747 244.516 76.5501 244.379 76.6914C244.247 76.8327 244.051 76.9033 243.791 76.9033C243.531 76.9033 243.335 76.8327 243.203 76.6914C243.076 76.5501 243.012 76.3747 243.012 76.165Z" fill="#3F4747"/>
<defs>
<linearGradient id="paint0_linear" x1="49.3685" y1="20.0208" x2="53.4767" y2="20.0208" gradientUnits="userSpaceOnUse">
<stop stop-color="#808080" stop-opacity="0.25"/>
<stop offset="0.54" stop-color="#808080" stop-opacity="0.12"/>
<stop offset="1" stop-color="#808080" stop-opacity="0.1"/>
</linearGradient>
<linearGradient id="paint1_linear" x1="6303.07" y1="1019.84" x2="6303.07" y2="0" gradientUnits="userSpaceOnUse">
<stop stop-color="#808080" stop-opacity="0.25"/>
<stop offset="0.54" stop-color="#808080" stop-opacity="0.12"/>
<stop offset="1" stop-color="#808080" stop-opacity="0.1"/>
</linearGradient>
<linearGradient id="paint2_linear" x1="9229.28" y1="18940.6" x2="9229.28" y2="5366.69" gradientUnits="userSpaceOnUse">
<stop stop-color="#808080" stop-opacity="0.25"/>
<stop offset="0.54" stop-color="#808080" stop-opacity="0.12"/>
<stop offset="1" stop-color="#808080" stop-opacity="0.1"/>
</linearGradient>
<linearGradient id="paint3_linear" x1="269.832" y1="24822.5" x2="269.832" y2="8093.87" gradientUnits="userSpaceOnUse">
<stop stop-color="#808080" stop-opacity="0.25"/>
<stop offset="0.54" stop-color="#808080" stop-opacity="0.12"/>
<stop offset="1" stop-color="#808080" stop-opacity="0.1"/>
</linearGradient>
<linearGradient id="paint4_linear" x1="12406.4" y1="16355.6" x2="12406.4" y2="6856.11" gradientUnits="userSpaceOnUse">
<stop stop-color="#808080" stop-opacity="0.25"/>
<stop offset="0.54" stop-color="#808080" stop-opacity="0.12"/>
<stop offset="1" stop-color="#808080" stop-opacity="0.1"/>
</linearGradient>
<linearGradient id="paint5_linear" x1="529.934" y1="20771.6" x2="529.934" y2="8986.97" gradientUnits="userSpaceOnUse">
<stop stop-color="#808080" stop-opacity="0.25"/>
<stop offset="0.54" stop-color="#808080" stop-opacity="0.12"/>
<stop offset="1" stop-color="#808080" stop-opacity="0.1"/>
</linearGradient>
<linearGradient id="paint6_linear" x1="27246.5" y1="25353.3" x2="27246.5" y2="13168.5" gradientUnits="userSpaceOnUse">
<stop stop-color="#808080" stop-opacity="0.25"/>
<stop offset="0.54" stop-color="#808080" stop-opacity="0.12"/>
<stop offset="1" stop-color="#808080" stop-opacity="0.1"/>
</linearGradient>
<linearGradient id="paint7_linear" x1="4593.2" y1="3688.89" x2="4593.2" y2="2541.43" gradientUnits="userSpaceOnUse">
<stop stop-color="#808080" stop-opacity="0.25"/>
<stop offset="0.54" stop-color="#808080" stop-opacity="0.12"/>
<stop offset="1" stop-color="#808080" stop-opacity="0.1"/>
</linearGradient>
<linearGradient id="paint8_linear" x1="2897.34" y1="4644.7" x2="2897.34" y2="3748.27" gradientUnits="userSpaceOnUse">
<stop stop-color="#808080" stop-opacity="0.25"/>
<stop offset="0.54" stop-color="#808080" stop-opacity="0.12"/>
<stop offset="1" stop-color="#808080" stop-opacity="0.1"/>
</linearGradient>
<linearGradient id="paint9_linear" x1="5216.19" y1="4644.7" x2="5216.19" y2="3748.27" gradientUnits="userSpaceOnUse">
<stop stop-color="#808080" stop-opacity="0.25"/>
<stop offset="0.54" stop-color="#808080" stop-opacity="0.12"/>
<stop offset="1" stop-color="#808080" stop-opacity="0.1"/>
</linearGradient>
<linearGradient id="paint10_linear" x1="25439.3" y1="11986" x2="25439.3" y2="2810.3" gradientUnits="userSpaceOnUse">
<stop stop-color="#808080" stop-opacity="0.25"/>
<stop offset="0.54" stop-color="#808080" stop-opacity="0.12"/>
<stop offset="1" stop-color="#808080" stop-opacity="0.1"/>
</linearGradient>
<linearGradient id="paint11_linear" x1="4954.32" y1="10452.6" x2="4954.32" y2="7947.28" gradientUnits="userSpaceOnUse">
<stop stop-color="#808080" stop-opacity="0.25"/>
<stop offset="0.54" stop-color="#808080" stop-opacity="0.12"/>
<stop offset="1" stop-color="#808080" stop-opacity="0.1"/>
</linearGradient>
<linearGradient id="paint12_linear" x1="1071.42" y1="1408.61" x2="1071.42" y2="1355.94" gradientUnits="userSpaceOnUse">
<stop stop-color="#808080" stop-opacity="0.25"/>
<stop offset="0.54" stop-color="#808080" stop-opacity="0.12"/>
<stop offset="1" stop-color="#808080" stop-opacity="0.1"/>
</linearGradient>
<linearGradient id="paint13_linear" x1="5987.98" y1="3183.88" x2="5987.98" y2="2973.17" gradientUnits="userSpaceOnUse">
<stop stop-color="#808080" stop-opacity="0.25"/>
<stop offset="0.54" stop-color="#808080" stop-opacity="0.12"/>
<stop offset="1" stop-color="#808080" stop-opacity="0.1"/>
</linearGradient>
<linearGradient id="paint14_linear" x1="5203.12" y1="11361.3" x2="5203.12" y2="8476.38" gradientUnits="userSpaceOnUse">
<stop stop-color="#808080" stop-opacity="0.25"/>
<stop offset="0.54" stop-color="#808080" stop-opacity="0.12"/>
<stop offset="1" stop-color="#808080" stop-opacity="0.1"/>
</linearGradient>
<linearGradient id="paint15_linear" x1="176.351" y1="12854.6" x2="176.351" y2="9300.13" gradientUnits="userSpaceOnUse">
<stop stop-color="#808080" stop-opacity="0.25"/>
<stop offset="0.54" stop-color="#808080" stop-opacity="0.12"/>
<stop offset="1" stop-color="#808080" stop-opacity="0.1"/>
</linearGradient>
<linearGradient id="paint16_linear" x1="5513.59" y1="9622.05" x2="5513.59" y2="7602.85" gradientUnits="userSpaceOnUse">
<stop stop-color="#808080" stop-opacity="0.25"/>
<stop offset="0.54" stop-color="#808080" stop-opacity="0.12"/>
<stop offset="1" stop-color="#808080" stop-opacity="0.1"/>
</linearGradient>
<linearGradient id="paint17_linear" x1="248.293" y1="10783.8" x2="248.293" y2="8279.74" gradientUnits="userSpaceOnUse">
<stop stop-color="#808080" stop-opacity="0.25"/>
<stop offset="0.54" stop-color="#808080" stop-opacity="0.12"/>
<stop offset="1" stop-color="#808080" stop-opacity="0.1"/>
</linearGradient>
<linearGradient id="paint18_linear" x1="144.302" y1="17696.6" x2="144.302" y2="11088.8" gradientUnits="userSpaceOnUse">
<stop stop-color="#808080" stop-opacity="0.25"/>
<stop offset="0.54" stop-color="#808080" stop-opacity="0.12"/>
<stop offset="1" stop-color="#808080" stop-opacity="0.1"/>
</linearGradient>
<linearGradient id="paint19_linear" x1="2784.9" y1="2218.78" x2="2784.9" y2="2017.36" gradientUnits="userSpaceOnUse">
<stop stop-color="#808080" stop-opacity="0.25"/>
<stop offset="0.54" stop-color="#808080" stop-opacity="0.12"/>
<stop offset="1" stop-color="#808080" stop-opacity="0.1"/>
</linearGradient>
<linearGradient id="paint20_linear" x1="53.5039" y1="731.912" x2="53.5039" y2="710.336" gradientUnits="userSpaceOnUse">
<stop stop-color="#808080" stop-opacity="0.25"/>
<stop offset="0.54" stop-color="#808080" stop-opacity="0.12"/>
<stop offset="1" stop-color="#808080" stop-opacity="0.1"/>
</linearGradient>
<linearGradient id="paint21_linear" x1="307.082" y1="731.912" x2="307.082" y2="710.336" gradientUnits="userSpaceOnUse">
<stop stop-color="#808080" stop-opacity="0.25"/>
<stop offset="0.54" stop-color="#808080" stop-opacity="0.12"/>
<stop offset="1" stop-color="#808080" stop-opacity="0.1"/>
</linearGradient>
<linearGradient id="paint22_linear" x1="911.86" y1="6208.86" x2="2961.18" y2="6208.86" gradientUnits="userSpaceOnUse">
<stop stop-color="#808080" stop-opacity="0.25"/>
<stop offset="0.54" stop-color="#808080" stop-opacity="0.12"/>
<stop offset="1" stop-color="#808080" stop-opacity="0.1"/>
</linearGradient>
<linearGradient id="paint23_linear" x1="-5539.08" y1="10674.7" x2="-5539.08" y2="8290.39" gradientUnits="userSpaceOnUse">
<stop stop-color="#808080" stop-opacity="0.25"/>
<stop offset="0.54" stop-color="#808080" stop-opacity="0.12"/>
<stop offset="1" stop-color="#808080" stop-opacity="0.1"/>
</linearGradient>
<linearGradient id="paint24_linear" x1="-229.395" y1="12904.6" x2="-229.395" y2="9966.42" gradientUnits="userSpaceOnUse">
<stop stop-color="#808080" stop-opacity="0.25"/>
<stop offset="0.54" stop-color="#808080" stop-opacity="0.12"/>
<stop offset="1" stop-color="#808080" stop-opacity="0.1"/>
</linearGradient>
<linearGradient id="paint25_linear" x1="-5640.08" y1="9032.03" x2="-5640.08" y2="7362.66" gradientUnits="userSpaceOnUse">
<stop stop-color="#808080" stop-opacity="0.25"/>
<stop offset="0.54" stop-color="#808080" stop-opacity="0.12"/>
<stop offset="1" stop-color="#808080" stop-opacity="0.1"/>
</linearGradient>
<linearGradient id="paint26_linear" x1="-298.967" y1="10828.1" x2="-298.967" y2="8758.23" gradientUnits="userSpaceOnUse">
<stop stop-color="#808080" stop-opacity="0.25"/>
<stop offset="0.54" stop-color="#808080" stop-opacity="0.12"/>
<stop offset="1" stop-color="#808080" stop-opacity="0.1"/>
</linearGradient>
<clipPath id="clip0">
<rect width="61.6932" height="63.8283" fill="white"/>
</clipPath>
</defs>
</svg>
