<svg width="357" height="191" viewBox="0 0 357 191" fill="none" xmlns="http://www.w3.org/2000/svg">
<g filter="url(#filter0_d)">
<ellipse cx="56.2804" cy="123.414" rx="53.9942" ry="59.5857" fill="#F8920F" fill-opacity="0.96"/>
<ellipse cx="82.4932" cy="114.232" rx="8.5" ry="8.96989" fill="#1E1919"/>
<ellipse cx="82.4932" cy="114.232" rx="8.5" ry="8.96989" fill="#1E1919"/>
<ellipse cx="82.4932" cy="114.232" rx="8.5" ry="8.96989" fill="#1E1919"/>
<path d="M80.8586 83.3118C80.2758 80.7806 81.1163 77.7584 82.8716 76.074L87.7006 71.4399C89.4645 69.7472 90.6865 67.115 91.014 64.3027V64.3027C91.9556 56.2186 99.2288 52.3647 102.472 58.3289C108.087 68.6564 113.178 79.322 106.861 73.7045C100.594 68.1316 94.0854 75.7924 89.5787 83.5916C87.0785 87.9183 81.9433 88.023 80.8586 83.3118V83.3118Z" fill="#F8920F" fill-opacity="0.96"/>
<path d="M31.4667 89.6726C44.8528 77.711 46.6149 90.9742 56.3212 91.8083" stroke="#F8920F" stroke-opacity="0.96" stroke-width="7"/>
<path d="M25.2358 133.88C46.193 184.773 59.988 179.197 85.8008 136.016" stroke="black" stroke-width="8"/>
<ellipse cx="39.9258" cy="110.601" rx="8.5" ry="5.33922" fill="#1E1919"/>
<ellipse cx="39.9258" cy="110.601" rx="8.5" ry="5.33922" fill="#1E1919"/>
<ellipse cx="39.9258" cy="110.601" rx="8.5" ry="5.33922" fill="#1E1919"/>
<path d="M24.8579 135.803C50.6231 171.213 63.5977 167 85.4229 137.938" stroke="#F8920F" stroke-opacity="0.96" stroke-width="5"/>
<rect width="24.2221" height="133.983" fill="#F8920F" fill-opacity="0.96"/>
<path d="M144.249 114.924C143.493 114.794 142.875 114.729 142.393 114.729C140.427 114.676 138.871 115.412 137.725 116.936L135.284 130.764H129.776L133.448 109.631L138.624 109.611L138.116 112.189C139.444 110.197 141.084 109.201 143.038 109.201C143.584 109.201 144.222 109.292 144.952 109.475L144.249 114.924ZM149.971 130.764H144.424L148.096 109.631H153.643L149.971 130.764ZM148.741 104.26C148.715 103.387 149.001 102.665 149.6 102.092C150.199 101.519 150.922 101.232 151.768 101.232C152.601 101.206 153.324 101.46 153.936 101.994C154.548 102.528 154.867 103.218 154.893 104.064C154.919 104.872 154.646 105.575 154.073 106.174C153.513 106.773 152.777 107.085 151.866 107.111C151.045 107.137 150.323 106.89 149.698 106.369C149.086 105.848 148.767 105.145 148.741 104.26ZM163.917 126.623C164.932 126.649 165.778 126.376 166.456 125.803C167.133 125.217 167.575 124.442 167.784 123.479L172.959 123.459C172.868 124.943 172.4 126.278 171.553 127.463C170.72 128.648 169.6 129.572 168.194 130.236C166.801 130.9 165.329 131.213 163.78 131.174C161.215 131.135 159.183 130.249 157.686 128.518C156.189 126.786 155.466 124.481 155.518 121.604L155.577 120.529L155.596 120.314C155.948 116.877 157.107 114.156 159.073 112.15C161.039 110.132 163.467 109.162 166.358 109.24C168.741 109.292 170.629 110.074 172.022 111.584C173.428 113.081 174.118 115.061 174.092 117.521H168.956C168.956 116.389 168.708 115.497 168.213 114.846C167.719 114.195 166.976 113.843 165.987 113.791C163.357 113.713 161.762 115.633 161.202 119.553C161.006 120.972 160.935 122.17 160.987 123.146C161.117 125.425 162.094 126.584 163.917 126.623ZM184.229 122.346L181.67 124.572L180.596 130.764H175.088L180.284 100.764H185.811L182.959 117.053L184.034 115.9L190.303 109.631H197.374L188.135 118.713L194.014 130.764H187.979L184.229 122.346ZM216.338 120.256C215.948 123.589 214.932 126.258 213.292 128.264C211.651 130.269 209.528 131.239 206.924 131.174C204.698 131.122 203.005 130.223 201.846 128.479L201.045 130.764H196.026L201.221 100.764H206.749L204.62 111.564C206.104 109.963 207.823 109.188 209.776 109.24C211.82 109.266 213.422 110.002 214.581 111.447C215.752 112.88 216.377 114.865 216.456 117.404C216.482 118.212 216.443 119.162 216.338 120.256ZM210.87 119.846C210.987 118.739 211.026 117.88 210.987 117.268C210.844 115.002 209.906 113.85 208.174 113.811C206.547 113.758 205.199 114.494 204.131 116.018L202.608 124.416C203.103 125.822 204.157 126.551 205.772 126.604C208.48 126.682 210.14 124.715 210.752 120.705L210.87 119.846ZM230.147 109.24C232.009 109.266 233.611 109.748 234.952 110.686C236.306 111.61 237.295 112.893 237.92 114.533C238.558 116.161 238.786 117.971 238.604 119.963C238.305 123.322 237.133 126.044 235.088 128.127C233.057 130.197 230.544 131.206 227.549 131.154C225.713 131.128 224.125 130.66 222.784 129.748C221.443 128.824 220.453 127.548 219.815 125.92C219.177 124.292 218.949 122.495 219.131 120.529C219.47 117.04 220.655 114.266 222.686 112.209C224.717 110.152 227.204 109.162 230.147 109.24ZM224.581 122.541C224.607 123.791 224.9 124.781 225.459 125.51C226.019 126.226 226.807 126.597 227.823 126.623C229.515 126.675 230.844 125.9 231.807 124.299C232.771 122.684 233.22 120.568 233.155 117.951C233.103 116.701 232.797 115.705 232.237 114.963C231.69 114.208 230.902 113.817 229.874 113.791C228.233 113.739 226.918 114.514 225.928 116.115C224.952 117.704 224.502 119.846 224.581 122.541ZM248.917 109.611L248.448 112.111C250.14 110.145 252.191 109.188 254.6 109.24C256.592 109.279 258.064 110.008 259.014 111.428C259.965 112.847 260.31 114.813 260.049 117.326L257.823 130.764H252.315L254.581 117.268C254.646 116.76 254.659 116.298 254.62 115.881C254.45 114.553 253.617 113.869 252.12 113.83C250.674 113.778 249.379 114.449 248.233 115.842L245.596 130.764H240.088L243.76 109.631L248.917 109.611ZM272.647 109.221C274.613 109.273 276.202 110.061 277.413 111.584L279.483 100.764H285.01L279.815 130.764H274.893L275.206 128.498C273.63 130.334 271.794 131.226 269.698 131.174C268.383 131.161 267.23 130.816 266.241 130.139C265.251 129.462 264.483 128.492 263.936 127.229C263.402 125.952 263.109 124.533 263.057 122.971C263.018 122.15 263.038 121.356 263.116 120.588L263.233 119.709C263.545 117.548 264.144 115.646 265.03 114.006C265.928 112.365 267.022 111.148 268.311 110.354C269.613 109.559 271.058 109.182 272.647 109.221ZM268.643 120.588C268.539 121.577 268.506 122.411 268.545 123.088C268.676 125.38 269.6 126.545 271.319 126.584C272.868 126.649 274.216 125.92 275.362 124.396L276.866 115.998C276.358 114.605 275.342 113.876 273.819 113.811C272.478 113.771 271.358 114.292 270.459 115.373C269.574 116.441 268.969 118.179 268.643 120.588ZM296.475 124.807C296.683 123.765 295.961 123.01 294.307 122.541L292.53 122.092C288.324 120.933 286.28 118.889 286.397 115.959C286.462 113.967 287.341 112.346 289.034 111.096C290.739 109.833 292.79 109.214 295.186 109.24C297.569 109.266 299.496 109.898 300.967 111.135C302.439 112.372 303.187 114.019 303.213 116.076L297.745 116.057C297.771 114.247 296.872 113.329 295.049 113.303C294.19 113.303 293.441 113.518 292.803 113.947C292.178 114.377 291.794 114.956 291.651 115.686C291.456 116.727 292.243 117.463 294.014 117.893L294.795 118.068C296.592 118.498 297.966 118.993 298.917 119.553C299.867 120.1 300.596 120.783 301.104 121.604C301.625 122.424 301.866 123.407 301.827 124.553C301.788 125.894 301.351 127.066 300.518 128.068C299.698 129.071 298.565 129.846 297.12 130.393C295.687 130.939 294.177 131.193 292.588 131.154C290.245 131.128 288.292 130.458 286.729 129.143C285.167 127.814 284.372 126.102 284.346 124.006L289.542 124.045C289.594 126.063 290.674 127.085 292.784 127.111C293.799 127.111 294.633 126.903 295.284 126.486C295.948 126.07 296.345 125.51 296.475 124.807Z" fill="#F8920F" fill-opacity="0.96"/>
</g>
<defs>
<filter id="filter0_d" x="0" y="0" width="311.213" height="190.999" filterUnits="userSpaceOnUse" color-interpolation-filters="sRGB">
<feFlood flood-opacity="0" result="BackgroundImageFix"/>
<feColorMatrix in="SourceAlpha" type="matrix" values="0 0 0 0 0 0 0 0 0 0 0 0 0 0 0 0 0 0 127 0"/>
<feOffset dx="4" dy="4"/>
<feGaussianBlur stdDeviation="2"/>
<feColorMatrix type="matrix" values="0 0 0 0 0 0 0 0 0 0 0 0 0 0 0 0 0 0 0.25 0"/>
<feBlend mode="normal" in2="BackgroundImageFix" result="effect1_dropShadow"/>
<feBlend mode="normal" in="SourceGraphic" in2="effect1_dropShadow" result="shape"/>
</filter>
</defs>
</svg>
