<svg width="280" height="98" viewBox="0 0 280 98" fill="none" xmlns="http://www.w3.org/2000/svg">
<g filter="url(#filter0_d)">
<path d="M88.2715 69.5723C88.0371 70.0801 87.7344 70.5586 87.3633 71.0078C87.0117 71.457 86.6113 71.8574 86.1621 72.209C85.7129 72.5605 85.2148 72.834 84.668 73.0293C84.1406 73.2441 83.5938 73.3516 83.0273 73.3516C81.5039 73.3516 80.3906 72.9316 79.6875 72.0918C79.0039 71.2324 78.6621 70.0703 78.6621 68.6055V32.8633L84.0527 30.9883V68.752C84.0527 69.1426 84.1406 69.5039 84.3164 69.8359C84.4922 70.1484 84.8047 70.3047 85.2539 70.3047C85.7031 70.3047 86.123 70.1289 86.5137 69.7773C86.9238 69.4062 87.2461 69.0449 87.4805 68.6934L88.2715 69.5723ZM114.873 69.5137C114.639 70.0215 114.346 70.5 113.994 70.9492C113.643 71.3984 113.232 71.7988 112.764 72.1504C112.314 72.502 111.816 72.7852 111.27 73C110.742 73.1953 110.186 73.293 109.6 73.293C108.057 73.293 106.943 72.873 106.26 72.0332C105.596 71.1738 105.264 70.0117 105.264 68.5469V68.0195C104.912 68.6836 104.512 69.3477 104.062 70.0117C103.633 70.6758 103.135 71.2715 102.568 71.7988C102.021 72.3262 101.406 72.7559 100.723 73.0879C100.039 73.4199 99.2773 73.5859 98.4375 73.5859C97.168 73.5859 96.0449 73.3418 95.0684 72.8535C94.0918 72.3652 93.2715 71.7109 92.6074 70.8906C91.9434 70.0508 91.4453 69.0742 91.1133 67.9609C90.7812 66.8477 90.6152 65.666 90.6152 64.416C90.6152 62.7168 90.9082 61.0273 91.4941 59.3477C92.0996 57.6484 92.9395 56.1348 94.0137 54.8066C95.1074 53.4785 96.4062 52.4043 97.9102 51.584C99.4336 50.7441 101.123 50.3242 102.979 50.3242C103.721 50.3242 104.463 50.3926 105.205 50.5293C105.947 50.666 106.65 50.8906 107.314 51.2031C107.998 51.4961 108.613 51.8867 109.16 52.375C109.727 52.8633 110.186 53.459 110.537 54.1621L106.172 56.0078C105.938 55.6367 105.664 55.2852 105.352 54.9531C105.059 54.6016 104.727 54.2988 104.355 54.0449C104.004 53.791 103.623 53.5859 103.213 53.4297C102.803 53.2734 102.373 53.1953 101.924 53.1953C100.908 53.1953 100 53.5078 99.1992 54.1328C98.418 54.7578 97.7441 55.5293 97.1777 56.4473C96.6309 57.3652 96.2109 58.3418 95.918 59.377C95.625 60.4121 95.4785 61.3496 95.4785 62.1895C95.4785 62.9316 95.5469 63.7715 95.6836 64.709C95.8398 65.627 96.1035 66.4961 96.4746 67.3164C96.8457 68.1367 97.334 68.8301 97.9395 69.3965C98.5449 69.9629 99.3066 70.2461 100.225 70.2461C100.947 70.2461 101.572 70.0898 102.1 69.7773C102.627 69.4453 103.076 69.0254 103.447 68.5176C103.818 67.9902 104.121 67.3945 104.355 66.7305C104.609 66.0469 104.795 65.3535 104.912 64.6504C105.049 63.9473 105.137 63.2539 105.176 62.5703C105.234 61.8672 105.264 61.2422 105.264 60.6953V58.6738L110.596 56.7988V68.6934C110.596 69.084 110.693 69.4453 110.889 69.7773C111.084 70.0898 111.387 70.2461 111.797 70.2461C112.285 70.2461 112.725 70.0703 113.115 69.7188C113.525 69.3477 113.848 68.9766 114.082 68.6055L114.873 69.5137ZM137.461 70.5977C137.461 72.0039 137.285 73.3711 136.934 74.6992C136.582 76.0469 136.094 77.3066 135.469 78.4785C134.863 79.6699 134.141 80.7539 133.301 81.7305C132.461 82.7266 131.543 83.5762 130.547 84.2793C129.57 85.002 128.535 85.5586 127.441 85.9492C126.348 86.3594 125.244 86.5645 124.131 86.5645C123.291 86.5645 122.5 86.418 121.758 86.125C121.016 85.8516 120.312 85.4805 119.648 85.0117L122.93 80.8516C123.223 81.0859 123.545 81.3301 123.896 81.584C124.268 81.8379 124.648 82.0625 125.039 82.2578C125.43 82.4727 125.83 82.6387 126.24 82.7559C126.67 82.8926 127.09 82.9609 127.5 82.9609C128.242 82.9609 128.867 82.7363 129.375 82.2871C129.902 81.8379 130.332 81.2617 130.664 80.5586C130.996 79.8555 131.26 79.0547 131.455 78.1562C131.65 77.2773 131.787 76.3984 131.865 75.5195C131.963 74.6406 132.021 73.8008 132.041 73C132.061 72.2188 132.07 71.5742 132.07 71.0664V59.2598C131.914 59.9434 131.709 60.7734 131.455 61.75C131.201 62.707 130.879 63.7227 130.488 64.7969C130.117 65.8516 129.688 66.9062 129.199 67.9609C128.711 68.9961 128.154 69.9336 127.529 70.7734C126.924 71.6133 126.24 72.2969 125.479 72.8242C124.736 73.332 123.926 73.5859 123.047 73.5859C122.148 73.5859 121.465 73.3906 120.996 73C120.547 72.5898 120.215 72.082 120 71.4766C119.805 70.8516 119.697 70.168 119.678 69.4258C119.658 68.6836 119.648 67.9707 119.648 67.2871V54.6309C119.648 54.2793 119.551 53.9375 119.355 53.6055C119.16 53.2539 118.857 53.0781 118.447 53.0781C117.959 53.0781 117.51 53.2637 117.1 53.6348C116.709 53.9863 116.396 54.3379 116.162 54.6895L115.371 53.8105C115.605 53.3223 115.898 52.8535 116.25 52.4043C116.621 51.9355 117.031 51.5254 117.48 51.1738C117.949 50.8223 118.447 50.5488 118.975 50.3535C119.521 50.1387 120.088 50.0312 120.674 50.0312C122.197 50.0312 123.291 50.4609 123.955 51.3203C124.639 52.1602 124.98 53.3027 124.98 54.748V66.8184C124.98 66.9355 124.98 67.0918 124.98 67.2871C125 67.4629 125.039 67.6387 125.098 67.8145C125.156 67.9707 125.244 68.1172 125.361 68.2539C125.479 68.3711 125.635 68.4297 125.83 68.4297C126.201 68.4297 126.582 68.2148 126.973 67.7852C127.363 67.3555 127.734 66.8574 128.086 66.291C128.438 65.7246 128.74 65.1582 128.994 64.5918C129.248 64.0254 129.434 63.6055 129.551 63.332C129.902 62.4922 130.215 61.5742 130.488 60.5781C130.762 59.582 130.996 58.5664 131.191 57.5312C131.406 56.4766 131.582 55.4414 131.719 54.4258C131.875 53.3906 131.992 52.4043 132.07 51.4668L137.461 49.5918V70.5977ZM150.029 34.7676L148.477 45.4609L145.605 46.3691L143.848 36.877L150.029 34.7676ZM154.072 69.5723C153.623 70.5293 153.096 71.2617 152.49 71.7695C151.904 72.2773 151.338 72.6484 150.791 72.8828C150.146 73.1562 149.492 73.3125 148.828 73.3516C147.969 73.3516 147.256 73.2148 146.689 72.9414C146.123 72.668 145.674 72.3066 145.342 71.8574C145.01 71.4082 144.775 70.9004 144.639 70.334C144.521 69.7676 144.463 69.1914 144.463 68.6055V52.1699L149.854 50.3242V68.752C149.854 69.2207 149.961 69.5918 150.176 69.8652C150.391 70.1387 150.664 70.2852 150.996 70.3047C151.348 70.3047 151.719 70.1777 152.109 69.9238C152.52 69.6699 152.91 69.2598 153.281 68.6934L154.072 69.5723ZM181.934 69.5723C181.699 70.0801 181.396 70.5586 181.025 71.0078C180.654 71.457 180.234 71.8574 179.766 72.209C179.316 72.5605 178.828 72.834 178.301 73.0293C177.773 73.2441 177.227 73.3516 176.66 73.3516C175.117 73.3516 173.994 72.9316 173.291 72.0918C172.607 71.2324 172.266 70.0703 172.266 68.6055V56.6816C172.266 56.5449 172.256 56.3887 172.236 56.2129C172.236 56.0176 172.207 55.8418 172.148 55.6855C172.09 55.5098 172.012 55.3633 171.914 55.2461C171.816 55.1289 171.68 55.0703 171.504 55.0703C170.957 55.0703 170.4 55.4023 169.834 56.0664C169.287 56.7305 168.75 57.5898 168.223 58.6445C167.715 59.6992 167.236 60.8809 166.787 62.1895C166.357 63.498 165.977 64.7969 165.645 66.0859C165.312 67.3555 165.049 68.5469 164.854 69.6602C164.678 70.7734 164.59 71.6621 164.59 72.3262L159.258 74.2012V54.5137C159.258 54.123 159.16 53.7715 158.965 53.459C158.77 53.127 158.467 52.9609 158.057 52.9609C157.568 52.9609 157.119 53.1465 156.709 53.5176C156.318 53.8691 156.006 54.2207 155.771 54.5723L154.98 53.6934C155.215 53.2051 155.508 52.7363 155.859 52.2871C156.23 51.8184 156.641 51.4082 157.09 51.0566C157.559 50.7051 158.057 50.4316 158.584 50.2363C159.131 50.0215 159.697 49.9141 160.283 49.9141C161.807 49.9141 162.9 50.3438 163.564 51.2031C164.248 52.043 164.59 53.1855 164.59 54.6309V64.1816C164.766 63.3809 165 62.4727 165.293 61.457C165.605 60.4219 165.977 59.377 166.406 58.3223C166.836 57.2676 167.314 56.2422 167.842 55.2461C168.389 54.2305 168.984 53.332 169.629 52.5508C170.273 51.75 170.977 51.1152 171.738 50.6465C172.5 50.1582 173.32 49.9141 174.199 49.9141C175.117 49.9141 175.811 50.1191 176.279 50.5293C176.748 50.9199 177.08 51.4277 177.275 52.0527C177.49 52.6582 177.607 53.332 177.627 54.0742C177.646 54.8164 177.656 55.5293 177.656 56.2129V68.752C177.656 69.1426 177.754 69.5039 177.949 69.8359C178.145 70.1484 178.447 70.3047 178.857 70.3047C179.307 70.3047 179.727 70.1289 180.117 69.7773C180.527 69.4062 180.85 69.0449 181.084 68.6934L181.934 69.5723ZM207.07 69.748C206.777 70.2559 206.416 70.7441 205.986 71.2129C205.557 71.6621 205.078 72.0527 204.551 72.3848C204.043 72.7168 203.496 72.9805 202.91 73.1758C202.324 73.3711 201.729 73.4688 201.123 73.4688C200.361 73.4688 199.57 73.1855 198.75 72.6191C197.93 72.0527 197.129 71.3789 196.348 70.5977C195.566 69.7969 194.824 68.9863 194.121 68.166C193.418 67.3262 192.793 66.6328 192.246 66.0859L191.777 66.3496C191.68 66.7012 191.592 67.1406 191.514 67.668C191.436 68.1953 191.367 68.7422 191.309 69.3086C191.25 69.875 191.201 70.4316 191.162 70.9785C191.143 71.5059 191.123 71.9551 191.104 72.3262L185.713 74.2012V32.8633L191.104 30.9883V63.5078C191.318 62.7852 191.582 61.9551 191.895 61.0176C192.207 60.0605 192.568 59.084 192.979 58.0879C193.408 57.0723 193.896 56.0762 194.443 55.0996C194.99 54.123 195.596 53.2539 196.26 52.4922C196.924 51.7109 197.656 51.0859 198.457 50.6172C199.258 50.1484 200.127 49.9141 201.064 49.9141C201.631 49.9141 202.139 50.0215 202.588 50.2363C203.057 50.4316 203.447 50.7051 203.76 51.0566C204.092 51.4082 204.346 51.8184 204.521 52.2871C204.697 52.7559 204.785 53.2637 204.785 53.8105C204.785 54.9238 204.512 55.9883 203.965 57.0039C203.418 58.0195 202.725 58.9668 201.885 59.8457C201.064 60.7246 200.166 61.5156 199.189 62.2188C198.232 62.9219 197.334 63.5176 196.494 64.0059C196.768 64.2402 197.08 64.5625 197.432 64.9727C197.783 65.3633 198.145 65.7832 198.516 66.2324C198.906 66.6816 199.307 67.1406 199.717 67.6094C200.146 68.0781 200.566 68.498 200.977 68.8691C201.387 69.2402 201.797 69.543 202.207 69.7773C202.637 70.0117 203.037 70.1289 203.408 70.1289C203.975 70.1289 204.492 70.002 204.961 69.748C205.43 69.4941 205.83 69.1621 206.162 68.752L207.07 69.748ZM199.219 55.9492C199.219 55.6172 199.072 55.3047 198.779 55.0117C198.486 54.7188 198.184 54.5723 197.871 54.5723C197.48 54.5723 197.08 54.7676 196.67 55.1582C196.279 55.5488 195.898 56.0469 195.527 56.6523C195.156 57.2578 194.795 57.9316 194.443 58.6738C194.111 59.416 193.809 60.1387 193.535 60.8418C193.262 61.5449 193.018 62.1992 192.803 62.8047C192.607 63.3906 192.461 63.8301 192.363 64.123C192.637 63.9277 192.988 63.6348 193.418 63.2441C193.867 62.8535 194.346 62.4141 194.854 61.9258C195.361 61.418 195.869 60.8906 196.377 60.3438C196.904 59.7773 197.373 59.2305 197.783 58.7031C198.213 58.1562 198.555 57.6484 198.809 57.1797C199.082 56.6914 199.219 56.2812 199.219 55.9492ZM233.525 69.5137C233.291 70.0215 232.998 70.5 232.646 70.9492C232.295 71.3984 231.885 71.7988 231.416 72.1504C230.967 72.502 230.469 72.7852 229.922 73C229.395 73.1953 228.838 73.293 228.252 73.293C226.709 73.293 225.596 72.873 224.912 72.0332C224.248 71.1738 223.916 70.0117 223.916 68.5469V68.0195C223.564 68.6836 223.164 69.3477 222.715 70.0117C222.285 70.6758 221.787 71.2715 221.221 71.7988C220.674 72.3262 220.059 72.7559 219.375 73.0879C218.691 73.4199 217.93 73.5859 217.09 73.5859C215.82 73.5859 214.697 73.3418 213.721 72.8535C212.744 72.3652 211.924 71.7109 211.26 70.8906C210.596 70.0508 210.098 69.0742 209.766 67.9609C209.434 66.8477 209.268 65.666 209.268 64.416C209.268 62.7168 209.561 61.0273 210.146 59.3477C210.752 57.6484 211.592 56.1348 212.666 54.8066C213.76 53.4785 215.059 52.4043 216.562 51.584C218.086 50.7441 219.775 50.3242 221.631 50.3242C222.373 50.3242 223.115 50.3926 223.857 50.5293C224.6 50.666 225.303 50.8906 225.967 51.2031C226.65 51.4961 227.266 51.8867 227.812 52.375C228.379 52.8633 228.838 53.459 229.189 54.1621L224.824 56.0078C224.59 55.6367 224.316 55.2852 224.004 54.9531C223.711 54.6016 223.379 54.2988 223.008 54.0449C222.656 53.791 222.275 53.5859 221.865 53.4297C221.455 53.2734 221.025 53.1953 220.576 53.1953C219.561 53.1953 218.652 53.5078 217.852 54.1328C217.07 54.7578 216.396 55.5293 215.83 56.4473C215.283 57.3652 214.863 58.3418 214.57 59.377C214.277 60.4121 214.131 61.3496 214.131 62.1895C214.131 62.9316 214.199 63.7715 214.336 64.709C214.492 65.627 214.756 66.4961 215.127 67.3164C215.498 68.1367 215.986 68.8301 216.592 69.3965C217.197 69.9629 217.959 70.2461 218.877 70.2461C219.6 70.2461 220.225 70.0898 220.752 69.7773C221.279 69.4453 221.729 69.0254 222.1 68.5176C222.471 67.9902 222.773 67.3945 223.008 66.7305C223.262 66.0469 223.447 65.3535 223.564 64.6504C223.701 63.9473 223.789 63.2539 223.828 62.5703C223.887 61.8672 223.916 61.2422 223.916 60.6953V58.6738L229.248 56.7988V68.6934C229.248 69.084 229.346 69.4453 229.541 69.7773C229.736 70.0898 230.039 70.2461 230.449 70.2461C230.938 70.2461 231.377 70.0703 231.768 69.7188C232.178 69.3477 232.5 68.9766 232.734 68.6055L233.525 69.5137Z" fill="white"/>
</g>
<g filter="url(#filter1_d)">
<ellipse cx="32.7895" cy="48.1573" rx="32.7895" ry="41.8424" fill="#FCFAFA"/>
</g>
<ellipse cx="45.0128" cy="38.9479" rx="5.04454" ry="6.84215" fill="#181616"/>
<ellipse cx="18.626" cy="35.0005" rx="5.04454" ry="2.89476" fill="#1C1818"/>
<path d="M15.1336 58.4216C28.4263 92.16 39.8916 76.9539 50.0574 58.4216" stroke="black" stroke-width="3"/>
<path d="M9.70106 31.6344C17.6559 17.4238 20.5794 31.806 27.5498 31.9159" stroke="black" stroke-width="2"/>
<g filter="url(#filter2_d)">
<path d="M71.9035 11.6761C73.4802 15.0394 72.2937 19.6182 69.0815 19.7261C66.5231 19.812 64.0788 19.4797 62.0805 21.5205C59.6208 24.0326 55.5754 25.8913 54.1177 22.7818C53.4356 21.3269 53.6198 19.36 54.5731 17.9194L59.7079 10.1592C63.0353 5.1306 68.8588 5.18145 71.2396 10.2599L71.9035 11.6761Z" fill="#FCFAFA"/>
</g>
<defs>
<filter id="filter0_d" x="74.6621" y="30.9883" width="162.863" height="63.5762" filterUnits="userSpaceOnUse" color-interpolation-filters="sRGB">
<feFlood flood-opacity="0" result="BackgroundImageFix"/>
<feColorMatrix in="SourceAlpha" type="matrix" values="0 0 0 0 0 0 0 0 0 0 0 0 0 0 0 0 0 0 127 0"/>
<feOffset dy="4"/>
<feGaussianBlur stdDeviation="2"/>
<feColorMatrix type="matrix" values="0 0 0 0 0 0 0 0 0 0 0 0 0 0 0 0 0 0 0.25 0"/>
<feBlend mode="normal" in2="BackgroundImageFix" result="effect1_dropShadow"/>
<feBlend mode="normal" in="SourceGraphic" in2="effect1_dropShadow" result="shape"/>
</filter>
<filter id="filter1_d" x="0" y="6.31494" width="73.579" height="91.6848" filterUnits="userSpaceOnUse" color-interpolation-filters="sRGB">
<feFlood flood-opacity="0" result="BackgroundImageFix"/>
<feColorMatrix in="SourceAlpha" type="matrix" values="0 0 0 0 0 0 0 0 0 0 0 0 0 0 0 0 0 0 127 0"/>
<feOffset dx="4" dy="4"/>
<feGaussianBlur stdDeviation="2"/>
<feColorMatrix type="matrix" values="0 0 0 0 0 0 0 0 0 0 0 0 0 0 0 0 0 0 0.25 0"/>
<feBlend mode="normal" in2="BackgroundImageFix" result="effect1_dropShadow"/>
<feBlend mode="normal" in="SourceGraphic" in2="effect1_dropShadow" result="shape"/>
</filter>
<filter id="filter2_d" x="53.7088" y="6.41919" width="26.8877" height="25.9924" filterUnits="userSpaceOnUse" color-interpolation-filters="sRGB">
<feFlood flood-opacity="0" result="BackgroundImageFix"/>
<feColorMatrix in="SourceAlpha" type="matrix" values="0 0 0 0 0 0 0 0 0 0 0 0 0 0 0 0 0 0 127 0"/>
<feOffset dx="4" dy="4"/>
<feGaussianBlur stdDeviation="2"/>
<feColorMatrix type="matrix" values="0 0 0 0 0 0 0 0 0 0 0 0 0 0 0 0 0 0 0.25 0"/>
<feBlend mode="normal" in2="BackgroundImageFix" result="effect1_dropShadow"/>
<feBlend mode="normal" in="SourceGraphic" in2="effect1_dropShadow" result="shape"/>
</filter>
</defs>
</svg>
