<svg width="500" height="201" viewBox="0 0 500 201" fill="none" xmlns="http://www.w3.org/2000/svg">
<g filter="url(#filter0_d)">
<path d="M182.331 161.716C181.901 162.647 181.346 163.524 180.666 164.348C180.021 165.171 179.287 165.905 178.464 166.55C177.64 167.194 176.727 167.696 175.725 168.054C174.758 168.448 173.755 168.645 172.717 168.645C169.924 168.645 167.883 167.875 166.594 166.335C165.34 164.759 164.714 162.629 164.714 159.943V94.416L174.597 90.9785V160.212C174.597 160.928 174.758 161.59 175.08 162.199C175.402 162.772 175.975 163.059 176.799 163.059C177.622 163.059 178.392 162.736 179.108 162.092C179.86 161.411 180.451 160.749 180.881 160.104L182.331 161.716ZM231.101 161.608C230.671 162.539 230.134 163.417 229.489 164.24C228.845 165.064 228.093 165.798 227.233 166.442C226.41 167.087 225.497 167.606 224.494 168C223.527 168.358 222.507 168.537 221.433 168.537C218.604 168.537 216.563 167.767 215.31 166.228C214.092 164.652 213.483 162.521 213.483 159.836V158.869C212.839 160.087 212.105 161.304 211.281 162.521C210.493 163.739 209.58 164.831 208.542 165.798C207.539 166.765 206.411 167.552 205.158 168.161C203.905 168.77 202.508 169.074 200.969 169.074C198.641 169.074 196.582 168.627 194.792 167.731C193.002 166.836 191.498 165.637 190.28 164.133C189.063 162.593 188.15 160.803 187.541 158.762C186.932 156.721 186.628 154.554 186.628 152.263C186.628 149.147 187.165 146.05 188.239 142.971C189.349 139.855 190.889 137.08 192.858 134.646C194.864 132.211 197.245 130.241 200.002 128.737C202.795 127.198 205.892 126.428 209.294 126.428C210.655 126.428 212.015 126.553 213.376 126.804C214.737 127.054 216.026 127.466 217.243 128.039C218.496 128.576 219.624 129.292 220.627 130.188C221.665 131.083 222.507 132.175 223.151 133.464L215.148 136.848C214.719 136.167 214.217 135.523 213.645 134.914C213.107 134.27 212.499 133.715 211.818 133.249C211.174 132.784 210.476 132.408 209.724 132.121C208.972 131.835 208.184 131.691 207.36 131.691C205.498 131.691 203.833 132.264 202.365 133.41C200.933 134.556 199.698 135.97 198.659 137.653C197.657 139.336 196.887 141.127 196.35 143.024C195.812 144.922 195.544 146.641 195.544 148.181C195.544 149.541 195.669 151.081 195.92 152.8C196.206 154.483 196.69 156.076 197.37 157.58C198.05 159.084 198.946 160.355 200.056 161.394C201.166 162.432 202.562 162.951 204.245 162.951C205.57 162.951 206.716 162.665 207.683 162.092C208.649 161.483 209.473 160.713 210.153 159.782C210.834 158.815 211.389 157.723 211.818 156.506C212.284 155.253 212.624 153.981 212.839 152.692C213.09 151.403 213.251 150.132 213.322 148.879C213.43 147.59 213.483 146.444 213.483 145.441V141.735L223.259 138.298V160.104C223.259 160.821 223.438 161.483 223.796 162.092C224.154 162.665 224.709 162.951 225.461 162.951C226.356 162.951 227.162 162.629 227.878 161.984C228.63 161.304 229.221 160.624 229.65 159.943L231.101 161.608ZM272.512 163.596C272.512 166.174 272.189 168.68 271.545 171.115C270.9 173.586 270.005 175.896 268.859 178.044C267.749 180.228 266.424 182.215 264.885 184.006C263.345 185.832 261.662 187.39 259.836 188.679C258.046 190.004 256.148 191.024 254.143 191.74C252.137 192.492 250.114 192.868 248.073 192.868C246.534 192.868 245.083 192.6 243.723 192.062C242.362 191.561 241.073 190.881 239.855 190.021L245.871 182.395C246.408 182.824 246.999 183.272 247.644 183.737C248.324 184.203 249.022 184.615 249.738 184.973C250.454 185.367 251.188 185.671 251.94 185.886C252.728 186.136 253.498 186.262 254.25 186.262C255.611 186.262 256.757 185.85 257.688 185.026C258.654 184.203 259.442 183.146 260.051 181.857C260.66 180.568 261.143 179.1 261.501 177.453C261.859 175.842 262.11 174.23 262.253 172.619C262.432 171.008 262.539 169.468 262.575 168C262.611 166.568 262.629 165.386 262.629 164.455V142.81C262.342 144.063 261.966 145.585 261.501 147.375C261.035 149.13 260.445 150.992 259.729 152.961C259.048 154.895 258.26 156.828 257.365 158.762C256.47 160.66 255.45 162.378 254.304 163.918C253.194 165.458 251.94 166.711 250.544 167.678C249.183 168.609 247.697 169.074 246.086 169.074C244.439 169.074 243.186 168.716 242.326 168C241.503 167.248 240.894 166.317 240.5 165.207C240.142 164.061 239.945 162.808 239.909 161.447C239.873 160.087 239.855 158.78 239.855 157.526V134.323C239.855 133.679 239.676 133.052 239.318 132.443C238.96 131.799 238.405 131.477 237.653 131.477C236.758 131.477 235.935 131.817 235.183 132.497C234.466 133.142 233.894 133.786 233.464 134.431L232.014 132.819C232.443 131.924 232.98 131.065 233.625 130.241C234.305 129.382 235.057 128.63 235.881 127.985C236.74 127.341 237.653 126.84 238.62 126.481C239.623 126.088 240.661 125.891 241.735 125.891C244.528 125.891 246.534 126.678 247.751 128.254C249.004 129.794 249.631 131.888 249.631 134.538V156.667C249.631 156.882 249.631 157.168 249.631 157.526C249.667 157.849 249.738 158.171 249.846 158.493C249.953 158.78 250.114 159.048 250.329 159.299C250.544 159.514 250.83 159.621 251.188 159.621C251.869 159.621 252.567 159.227 253.283 158.439C253.999 157.652 254.68 156.739 255.324 155.7C255.969 154.662 256.524 153.623 256.989 152.585C257.455 151.547 257.795 150.777 258.01 150.275C258.654 148.736 259.227 147.053 259.729 145.227C260.23 143.4 260.66 141.538 261.018 139.641C261.411 137.707 261.734 135.809 261.984 133.947C262.271 132.049 262.486 130.241 262.629 128.522L272.512 125.085V163.596ZM295.554 97.9072L292.707 117.512L287.443 119.177L284.221 101.774L295.554 97.9072ZM302.966 161.716C302.142 163.47 301.175 164.813 300.065 165.744C298.991 166.675 297.953 167.355 296.95 167.785C295.769 168.286 294.569 168.573 293.352 168.645C291.776 168.645 290.469 168.394 289.431 167.893C288.392 167.391 287.569 166.729 286.96 165.905C286.351 165.082 285.922 164.151 285.671 163.112C285.456 162.074 285.349 161.018 285.349 159.943V129.812L295.231 126.428V160.212C295.231 161.071 295.428 161.752 295.822 162.253C296.216 162.754 296.717 163.023 297.326 163.059C297.971 163.059 298.651 162.826 299.367 162.36C300.119 161.895 300.835 161.143 301.516 160.104L302.966 161.716ZM354.045 161.716C353.615 162.647 353.06 163.524 352.38 164.348C351.7 165.171 350.93 165.905 350.07 166.55C349.247 167.194 348.352 167.696 347.385 168.054C346.418 168.448 345.415 168.645 344.377 168.645C341.548 168.645 339.489 167.875 338.2 166.335C336.947 164.759 336.32 162.629 336.32 159.943V138.083C336.32 137.832 336.302 137.546 336.267 137.224C336.267 136.866 336.213 136.543 336.105 136.257C335.998 135.935 335.855 135.666 335.676 135.451C335.497 135.236 335.246 135.129 334.924 135.129C333.921 135.129 332.901 135.738 331.862 136.955C330.86 138.173 329.875 139.748 328.908 141.682C327.977 143.615 327.1 145.782 326.276 148.181C325.489 150.58 324.79 152.961 324.182 155.324C323.573 157.652 323.09 159.836 322.731 161.877C322.409 163.918 322.248 165.547 322.248 166.765L312.473 170.202V134.108C312.473 133.392 312.294 132.748 311.936 132.175C311.577 131.566 311.022 131.262 310.271 131.262C309.375 131.262 308.552 131.602 307.8 132.282C307.084 132.927 306.511 133.571 306.081 134.216L304.631 132.604C305.061 131.709 305.598 130.85 306.242 130.026C306.923 129.167 307.674 128.415 308.498 127.771C309.357 127.126 310.271 126.625 311.237 126.267C312.24 125.873 313.278 125.676 314.353 125.676C317.146 125.676 319.151 126.464 320.368 128.039C321.621 129.579 322.248 131.674 322.248 134.323V151.833C322.57 150.365 323 148.7 323.537 146.838C324.11 144.94 324.79 143.024 325.578 141.091C326.366 139.157 327.243 137.277 328.21 135.451C329.213 133.589 330.305 131.942 331.486 130.51C332.668 129.042 333.957 127.878 335.354 127.019C336.75 126.123 338.254 125.676 339.865 125.676C341.548 125.676 342.819 126.052 343.679 126.804C344.538 127.52 345.147 128.451 345.505 129.597C345.899 130.707 346.114 131.942 346.149 133.303C346.185 134.663 346.203 135.97 346.203 137.224V160.212C346.203 160.928 346.382 161.59 346.74 162.199C347.098 162.772 347.653 163.059 348.405 163.059C349.229 163.059 349.999 162.736 350.715 162.092C351.467 161.411 352.058 160.749 352.487 160.104L354.045 161.716ZM400.129 162.038C399.592 162.969 398.929 163.864 398.142 164.724C397.354 165.547 396.477 166.263 395.51 166.872C394.579 167.481 393.576 167.964 392.502 168.322C391.428 168.68 390.336 168.859 389.226 168.859C387.829 168.859 386.379 168.34 384.875 167.302C383.371 166.263 381.903 165.028 380.471 163.596C379.038 162.128 377.678 160.642 376.389 159.138C375.1 157.598 373.954 156.327 372.951 155.324L372.092 155.808C371.913 156.452 371.752 157.258 371.608 158.225C371.465 159.191 371.34 160.194 371.232 161.232C371.125 162.271 371.035 163.291 370.964 164.294C370.928 165.261 370.892 166.084 370.856 166.765L360.974 170.202V94.416L370.856 90.9785V150.598C371.25 149.273 371.734 147.751 372.307 146.032C372.88 144.278 373.542 142.487 374.294 140.661C375.082 138.799 375.977 136.973 376.979 135.183C377.982 133.392 379.092 131.799 380.31 130.402C381.527 128.97 382.87 127.824 384.338 126.965C385.806 126.105 387.399 125.676 389.118 125.676C390.157 125.676 391.088 125.873 391.911 126.267C392.771 126.625 393.487 127.126 394.06 127.771C394.668 128.415 395.134 129.167 395.456 130.026C395.778 130.886 395.939 131.817 395.939 132.819C395.939 134.86 395.438 136.812 394.436 138.674C393.433 140.536 392.162 142.272 390.622 143.884C389.118 145.495 387.471 146.945 385.681 148.234C383.926 149.523 382.279 150.616 380.739 151.511C381.241 151.94 381.813 152.531 382.458 153.283C383.103 153.999 383.765 154.769 384.445 155.593C385.161 156.416 385.896 157.258 386.647 158.117C387.435 158.977 388.205 159.746 388.957 160.427C389.709 161.107 390.461 161.662 391.213 162.092C392.001 162.521 392.735 162.736 393.415 162.736C394.453 162.736 395.402 162.504 396.262 162.038C397.121 161.573 397.855 160.964 398.464 160.212L400.129 162.038ZM385.734 136.74C385.734 136.132 385.466 135.559 384.929 135.021C384.392 134.484 383.837 134.216 383.264 134.216C382.548 134.216 381.813 134.574 381.062 135.29C380.345 136.006 379.647 136.919 378.967 138.029C378.286 139.139 377.624 140.375 376.979 141.735C376.371 143.096 375.816 144.421 375.314 145.71C374.813 146.999 374.366 148.199 373.972 149.309C373.614 150.383 373.345 151.188 373.166 151.726C373.667 151.368 374.312 150.83 375.1 150.114C375.923 149.398 376.8 148.592 377.731 147.697C378.662 146.766 379.593 145.799 380.524 144.797C381.491 143.758 382.351 142.756 383.103 141.789C383.89 140.786 384.517 139.855 384.982 138.996C385.484 138.101 385.734 137.349 385.734 136.74ZM448.63 161.608C448.2 162.539 447.663 163.417 447.019 164.24C446.374 165.064 445.622 165.798 444.763 166.442C443.939 167.087 443.026 167.606 442.023 168C441.057 168.358 440.036 168.537 438.962 168.537C436.133 168.537 434.092 167.767 432.839 166.228C431.621 164.652 431.013 162.521 431.013 159.836V158.869C430.368 160.087 429.634 161.304 428.811 162.521C428.023 163.739 427.11 164.831 426.071 165.798C425.069 166.765 423.941 167.552 422.688 168.161C421.434 168.77 420.038 169.074 418.498 169.074C416.171 169.074 414.112 168.627 412.321 167.731C410.531 166.836 409.027 165.637 407.81 164.133C406.592 162.593 405.679 160.803 405.07 158.762C404.462 156.721 404.157 154.554 404.157 152.263C404.157 149.147 404.694 146.05 405.769 142.971C406.879 139.855 408.418 137.08 410.388 134.646C412.393 132.211 414.774 130.241 417.531 128.737C420.324 127.198 423.422 126.428 426.823 126.428C428.184 126.428 429.545 126.553 430.905 126.804C432.266 127.054 433.555 127.466 434.772 128.039C436.026 128.576 437.154 129.292 438.156 130.188C439.195 131.083 440.036 132.175 440.681 133.464L432.678 136.848C432.248 136.167 431.747 135.523 431.174 134.914C430.637 134.27 430.028 133.715 429.348 133.249C428.703 132.784 428.005 132.408 427.253 132.121C426.501 131.835 425.713 131.691 424.89 131.691C423.028 131.691 421.363 132.264 419.895 133.41C418.462 134.556 417.227 135.97 416.188 137.653C415.186 139.336 414.416 141.127 413.879 143.024C413.342 144.922 413.073 146.641 413.073 148.181C413.073 149.541 413.199 151.081 413.449 152.8C413.736 154.483 414.219 156.076 414.899 157.58C415.58 159.084 416.475 160.355 417.585 161.394C418.695 162.432 420.091 162.951 421.774 162.951C423.099 162.951 424.245 162.665 425.212 162.092C426.179 161.483 427.002 160.713 427.683 159.782C428.363 158.815 428.918 157.723 429.348 156.506C429.813 155.253 430.153 153.981 430.368 152.692C430.619 151.403 430.78 150.132 430.852 148.879C430.959 147.59 431.013 146.444 431.013 145.441V141.735L440.788 138.298V160.104C440.788 160.821 440.967 161.483 441.325 162.092C441.683 162.665 442.238 162.951 442.99 162.951C443.885 162.951 444.691 162.629 445.407 161.984C446.159 161.304 446.75 160.624 447.18 159.943L448.63 161.608ZM466.945 163.918C466.945 164.777 466.766 165.583 466.408 166.335C466.086 167.087 465.638 167.731 465.065 168.269C464.528 168.841 463.866 169.289 463.078 169.611C462.326 169.934 461.521 170.095 460.661 170.095C459.802 170.095 458.996 169.934 458.244 169.611C457.528 169.289 456.883 168.841 456.311 168.269C455.738 167.731 455.29 167.087 454.968 166.335C454.646 165.583 454.484 164.777 454.484 163.918C454.484 163.059 454.646 162.253 454.968 161.501C455.29 160.749 455.738 160.087 456.311 159.514C456.883 158.941 457.528 158.493 458.244 158.171C458.996 157.813 459.802 157.634 460.661 157.634C461.521 157.634 462.326 157.813 463.078 158.171C463.866 158.493 464.528 158.941 465.065 159.514C465.638 160.087 466.086 160.749 466.408 161.501C466.766 162.253 466.945 163.059 466.945 163.918Z" fill="#7FB6CA"/>
</g>
<ellipse cx="73.6859" cy="98.9897" rx="73.6859" ry="86.0099" fill="#7FB6CA"/>
<ellipse cx="101.653" cy="80.5599" rx="11.835" ry="14.565" fill="white"/>
<ellipse cx="41.8571" cy="72.9449" rx="11.3363" ry="6.95" fill="white"/>
<path d="M34.0089 120.089C63.8808 189.44 89.6459 158.183 112.491 120.089" stroke="white" stroke-width="5"/>
<path d="M21.8006 65.0257C39.6771 35.8147 46.2469 65.3783 61.9109 65.6043" stroke="white" stroke-width="5"/>
<path d="M161.276 23.399C164.99 30.6446 162.407 40.3535 155.027 40.5539C149.148 40.7136 143.547 40.0474 139.025 44.7123C133.846 50.0552 125 53.4329 121.693 46.9799V46.9799C120.117 43.9057 120.497 39.7951 122.628 36.8487L134.728 20.1216C141.965 10.1182 154.695 10.557 160.044 20.9943L161.276 23.399Z" fill="#7FB6CA"/>
<defs>
<filter id="filter0_d" x="160.714" y="90.9785" width="310.231" height="109.89" filterUnits="userSpaceOnUse" color-interpolation-filters="sRGB">
<feFlood flood-opacity="0" result="BackgroundImageFix"/>
<feColorMatrix in="SourceAlpha" type="matrix" values="0 0 0 0 0 0 0 0 0 0 0 0 0 0 0 0 0 0 127 0"/>
<feOffset dy="4"/>
<feGaussianBlur stdDeviation="2"/>
<feColorMatrix type="matrix" values="0 0 0 0 0 0 0 0 0 0 0 0 0 0 0 0 0 0 0.25 0"/>
<feBlend mode="normal" in2="BackgroundImageFix" result="effect1_dropShadow"/>
<feBlend mode="normal" in="SourceGraphic" in2="effect1_dropShadow" result="shape"/>
</filter>
</defs>
</svg>
